<svg width="259" height="34" viewBox="0 0 259 34" fill="none" xmlns="http://www.w3.org/2000/svg">
<path d="M0.125 2.39062H10.1836C12.3451 2.39062 14.1875 2.71615 15.7109 3.36719C17.2344 4.01823 18.3997 4.98177 19.207 6.25781C20.0273 7.52083 20.4375 9.08333 20.4375 10.9453C20.4375 12.3646 20.1771 13.6146 19.6562 14.6953C19.1354 15.776 18.3997 16.6875 17.4492 17.4297C16.4987 18.1589 15.3659 18.7253 14.0508 19.1289L12.5664 19.8516H3.52344L3.48438 15.9648H10.2617C11.4336 15.9648 12.4102 15.7565 13.1914 15.3398C13.9727 14.9232 14.5586 14.3568 14.9492 13.6406C15.3529 12.9115 15.5547 12.0911 15.5547 11.1797C15.5547 10.1901 15.3594 9.33073 14.9688 8.60156C14.5911 7.85938 14.0052 7.29297 13.2109 6.90234C12.4167 6.4987 11.4076 6.29688 10.1836 6.29688H5.02734V30.8281H0.125V2.39062ZM16.3555 30.8281L9.67578 18.0547L14.8125 18.0352L21.5898 30.5742V30.8281H16.3555Z" fill="#2FAFC7"/>
<path d="M43.9336 26.9414V30.8281H28.8359V26.9414H43.9336ZM30.2227 2.39062V30.8281H25.3203V2.39062H30.2227ZM41.9609 14.2656V18.0938H28.8359V14.2656H41.9609ZM43.8359 2.39062V6.29688H28.8359V2.39062H43.8359Z" fill="#2FAFC7"/>
<path d="M56.1992 30.8281H50.125L50.1641 26.9414H56.1992C57.957 26.9414 59.4284 26.5573 60.6133 25.7891C61.8112 25.0208 62.7096 23.9206 63.3086 22.4883C63.9206 21.056 64.2266 19.3503 64.2266 17.3711V15.8281C64.2266 14.2917 64.0508 12.931 63.6992 11.7461C63.3607 10.5612 62.8529 9.5651 62.1758 8.75781C61.5117 7.95052 60.6914 7.33854 59.7148 6.92188C58.7513 6.50521 57.638 6.29688 56.375 6.29688H50.0078V2.39062H56.375C58.263 2.39062 59.9883 2.70964 61.5508 3.34766C63.1133 3.97266 64.4609 4.8776 65.5938 6.0625C66.7396 7.2474 67.6185 8.66667 68.2305 10.3203C68.8424 11.974 69.1484 13.8229 69.1484 15.8672V17.3711C69.1484 19.4154 68.8424 21.2643 68.2305 22.918C67.6185 24.5716 66.7396 25.9909 65.5938 27.1758C64.4479 28.3477 63.0807 29.2526 61.4922 29.8906C59.9167 30.5156 58.1523 30.8281 56.1992 30.8281ZM52.8398 2.39062V30.8281H47.9375V2.39062H52.8398Z" fill="#2FAFC7"/>
<path d="M79.3047 2.39062V30.8281H74.4023V2.39062H79.3047Z" fill="#2FAFC7"/>
<path d="M85.125 28.4844C85.125 27.7552 85.3724 27.1432 85.8672 26.6484C86.362 26.1406 87.0326 25.8867 87.8789 25.8867C88.7383 25.8867 89.4089 26.1406 89.8906 26.6484C90.3854 27.1432 90.6328 27.7552 90.6328 28.4844C90.6328 29.2135 90.3854 29.8255 89.8906 30.3203C89.4089 30.8151 88.7383 31.0625 87.8789 31.0625C87.0326 31.0625 86.362 30.8151 85.8672 30.3203C85.3724 29.8255 85.125 29.2135 85.125 28.4844Z" fill="#2FAFC7"/>
<path d="M125.105 26.9414V30.8281H110.008V26.9414H125.105ZM111.395 2.39062V30.8281H106.492V2.39062H111.395ZM123.133 14.2656V18.0938H110.008V14.2656H123.133ZM125.008 2.39062V6.29688H110.008V2.39062H125.008Z" fill="#2FAFC7"/>
<path d="M138.855 25.6328L146.336 2.39062H151.746L141.551 30.8281H137.898L138.855 25.6328ZM131.941 2.39062L139.363 25.6328L140.379 30.8281H136.707L126.551 2.39062H131.941Z" fill="#2FAFC7"/>
<path d="M173.543 26.9414V30.8281H158.445V26.9414H173.543ZM159.832 2.39062V30.8281H154.93V2.39062H159.832ZM171.57 14.2656V18.0938H158.445V14.2656H171.57ZM173.445 2.39062V6.29688H158.445V2.39062H173.445Z" fill="#2FAFC7"/>
<path d="M200.105 2.39062V30.8281H195.203L182.449 10.457V30.8281H177.547V2.39062H182.449L195.242 22.8008V2.39062H200.105Z" fill="#2FAFC7"/>
<path d="M217.059 2.39062V30.8281H212.195V2.39062H217.059ZM225.984 2.39062V6.29688H203.348V2.39062H225.984Z" fill="#2FAFC7"/>
<path d="M244.383 23.5039C244.383 22.918 244.292 22.3971 244.109 21.9414C243.94 21.4857 243.634 21.069 243.191 20.6914C242.749 20.3138 242.124 19.9492 241.316 19.5977C240.522 19.2331 239.507 18.862 238.27 18.4844C236.915 18.0677 235.665 17.6055 234.52 17.0977C233.387 16.5768 232.397 15.9779 231.551 15.3008C230.704 14.6107 230.047 13.8229 229.578 12.9375C229.109 12.0391 228.875 11.0039 228.875 9.83203C228.875 8.67318 229.116 7.61849 229.598 6.66797C230.092 5.71745 230.789 4.89714 231.688 4.20703C232.599 3.50391 233.673 2.96354 234.91 2.58594C236.147 2.19531 237.514 2 239.012 2C241.121 2 242.938 2.39062 244.461 3.17188C245.997 3.95312 247.176 5.0013 247.996 6.31641C248.829 7.63151 249.246 9.08333 249.246 10.6719H244.383C244.383 9.73438 244.181 8.90755 243.777 8.19141C243.387 7.46224 242.788 6.88932 241.98 6.47266C241.186 6.05599 240.177 5.84766 238.953 5.84766C237.794 5.84766 236.831 6.02344 236.062 6.375C235.294 6.72656 234.721 7.20182 234.344 7.80078C233.966 8.39974 233.777 9.07682 233.777 9.83203C233.777 10.3659 233.901 10.8542 234.148 11.2969C234.396 11.7266 234.773 12.1302 235.281 12.5078C235.789 12.8724 236.427 13.2174 237.195 13.543C237.964 13.8685 238.868 14.181 239.91 14.4805C241.486 14.9492 242.859 15.4701 244.031 16.043C245.203 16.6029 246.18 17.2409 246.961 17.957C247.742 18.6732 248.328 19.487 248.719 20.3984C249.109 21.2969 249.305 22.319 249.305 23.4648C249.305 24.6628 249.064 25.7435 248.582 26.707C248.1 27.6576 247.41 28.4714 246.512 29.1484C245.626 29.8125 244.559 30.3268 243.309 30.6914C242.072 31.043 240.691 31.2188 239.168 31.2188C237.801 31.2188 236.453 31.0365 235.125 30.6719C233.81 30.3073 232.612 29.7539 231.531 29.0117C230.451 28.2565 229.591 27.319 228.953 26.1992C228.315 25.0664 227.996 23.7448 227.996 22.2344H232.898C232.898 23.1589 233.055 23.9466 233.367 24.5977C233.693 25.2487 234.142 25.7826 234.715 26.1992C235.288 26.6029 235.952 26.9023 236.707 27.0977C237.475 27.293 238.296 27.3906 239.168 27.3906C240.314 27.3906 241.271 27.2279 242.039 26.9023C242.82 26.5768 243.406 26.1211 243.797 25.5352C244.188 24.9492 244.383 24.2721 244.383 23.5039Z" fill="#2FAFC7"/>
<path d="M253.367 28.4844C253.367 27.7552 253.615 27.1432 254.109 26.6484C254.604 26.1406 255.275 25.8867 256.121 25.8867C256.98 25.8867 257.651 26.1406 258.133 26.6484C258.628 27.1432 258.875 27.7552 258.875 28.4844C258.875 29.2135 258.628 29.8255 258.133 30.3203C257.651 30.8151 256.98 31.0625 256.121 31.0625C255.275 31.0625 254.604 30.8151 254.109 30.3203C253.615 29.8255 253.367 29.2135 253.367 28.4844Z" fill="#2FAFC7"/>
</svg>
