<svg width="75" height="33" viewBox="0 0 75 33" fill="none" xmlns="http://www.w3.org/2000/svg">
<path d="M0.429688 2H10.4883C12.6497 2 14.4922 2.32552 16.0156 2.97656C17.5391 3.6276 18.7044 4.59115 19.5117 5.86719C20.332 7.13021 20.7422 8.69271 20.7422 10.5547C20.7422 11.974 20.4818 13.224 19.9609 14.3047C19.4401 15.3854 18.7044 16.2969 17.7539 17.0391C16.8034 17.7682 15.6706 18.3346 14.3555 18.7383L12.8711 19.4609H3.82812L3.78906 15.5742H10.5664C11.7383 15.5742 12.7148 15.3659 13.4961 14.9492C14.2773 14.5326 14.8633 13.9661 15.2539 13.25C15.6576 12.5208 15.8594 11.7005 15.8594 10.7891C15.8594 9.79948 15.6641 8.9401 15.2734 8.21094C14.8958 7.46875 14.3099 6.90234 13.5156 6.51172C12.7214 6.10807 11.7122 5.90625 10.4883 5.90625H5.33203V30.4375H0.429688V2ZM16.6602 30.4375L9.98047 17.6641L15.1172 17.6445L21.8945 30.1836V30.4375H16.6602Z" fill="#F3F3F3"/>
<path d="M25.3516 28.0938C25.3516 27.3646 25.599 26.7526 26.0938 26.2578C26.5885 25.75 27.2591 25.4961 28.1055 25.4961C28.9648 25.4961 29.6354 25.75 30.1172 26.2578C30.612 26.7526 30.8594 27.3646 30.8594 28.0938C30.8594 28.8229 30.612 29.4349 30.1172 29.9297C29.6354 30.4245 28.9648 30.6719 28.1055 30.6719C27.2591 30.6719 26.5885 30.4245 26.0938 29.9297C25.599 29.4349 25.3516 28.8229 25.3516 28.0938Z" fill="#F3F3F3"/>
<path d="M65.332 26.5508V30.4375H50.2344V26.5508H65.332ZM51.6211 2V30.4375H46.7188V2H51.6211ZM63.3594 13.875V17.7031H50.2344V13.875H63.3594ZM65.2344 2V5.90625H50.2344V2H65.2344Z" fill="#F3F3F3"/>
<path d="M69.0625 28.0938C69.0625 27.3646 69.3099 26.7526 69.8047 26.2578C70.2995 25.75 70.9701 25.4961 71.8164 25.4961C72.6758 25.4961 73.3464 25.75 73.8281 26.2578C74.3229 26.7526 74.5703 27.3646 74.5703 28.0938C74.5703 28.8229 74.3229 29.4349 73.8281 29.9297C73.3464 30.4245 72.6758 30.6719 71.8164 30.6719C70.9701 30.6719 70.2995 30.4245 69.8047 29.9297C69.3099 29.4349 69.0625 28.8229 69.0625 28.0938Z" fill="#F3F3F3"/>
</svg>
