<svg width="149" height="41" viewBox="0 0 149 41" fill="none" xmlns="http://www.w3.org/2000/svg">
<path d="M13.5291 39.3034C13.4875 39.1854 13.4459 39.0727 13.4084 38.96C13.3695 38.8474 13.3333 38.736 13.2997 38.618C13.2662 38.5 13.234 38.3766 13.2045 38.2411C13.175 38.1057 13.1482 37.9595 13.1227 37.7972C13.0986 37.6335 13.0758 37.4538 13.057 37.2513C13.0382 37.0487 13.0221 36.8221 13.0087 36.5686C12.9953 36.3151 12.9859 36.0321 12.9792 35.7155C12.9725 35.399 12.9698 35.0476 12.9698 34.6573C12.9698 34.3891 12.9698 34.1369 12.9698 33.8941C12.9698 33.6527 12.9698 33.4234 12.9698 33.2007C12.9698 32.9794 12.9698 32.7661 12.9698 32.5569C12.9698 32.349 12.9698 32.1451 12.9698 31.9426C12.9698 31.7401 12.9698 31.5402 12.9698 31.339C12.9698 31.1379 12.9698 30.934 12.9698 30.7248C12.9698 30.5169 12.9698 30.3036 12.9698 30.081C12.9698 29.8597 12.9698 29.629 12.9698 29.3875C12.9698 29.1461 12.9698 28.8926 12.9698 28.6244C12.9698 28.3011 12.9604 27.9967 12.9403 27.711C12.9202 27.4253 12.8893 27.1584 12.8477 26.9089C12.8062 26.6594 12.7539 26.4287 12.6895 26.2141C12.6264 26.0009 12.5513 25.8037 12.4655 25.624C12.3796 25.4443 12.2817 25.2806 12.1731 25.1317C12.0645 24.9842 11.9437 24.8514 11.8123 24.7347C11.6795 24.6181 11.536 24.5161 11.3804 24.4289C11.2248 24.3418 11.0558 24.2693 10.8761 24.2103C10.695 24.1513 10.5032 24.107 10.298 24.0748C10.0928 24.044 9.87419 24.0252 9.64484 24.0199C9.41415 24.0145 9.17004 24.0212 8.91386 24.0413C8.69926 24.0574 8.51149 24.0722 8.33712 24.0856C8.16276 24.099 8.00181 24.1111 7.84086 24.1231C7.67991 24.1352 7.51896 24.1473 7.3446 24.1607C7.17024 24.1741 6.98246 24.1889 6.76786 24.2049C6.76786 24.4705 6.76786 24.7307 6.76786 24.9856C6.76786 25.2404 6.76786 25.4899 6.76786 25.7353C6.76786 25.9808 6.76786 26.2208 6.76786 26.4582C6.76786 26.6943 6.76786 26.9277 6.76786 27.1557C6.76786 27.385 6.76786 27.609 6.76786 27.8317C6.76786 28.053 6.76786 28.2716 6.76786 28.4876C6.76786 28.7035 6.76786 28.9168 6.76786 29.1273C6.76786 29.3379 6.76786 29.5471 6.76786 29.7537C6.76786 29.9602 6.76786 30.1655 6.76786 30.368C6.76786 30.5719 6.76786 30.773 6.76786 30.9742C6.76786 31.1754 6.76786 31.3753 6.76786 31.5751C6.76786 31.775 6.76786 31.9735 6.76786 32.1733C6.76786 32.3732 6.76786 32.5717 6.76786 32.7715C6.76786 32.9713 6.76786 33.1712 6.76786 33.3724C6.76786 33.5736 6.76786 33.7761 6.76786 33.9786C6.76786 34.1825 6.76786 34.3864 6.76786 34.5929C6.76786 34.7995 6.76786 35.0074 6.76786 35.2193C6.76786 35.4312 6.76786 35.6431 6.76786 35.8591C6.76786 36.075 6.76786 36.2936 6.76786 36.5149C6.76786 36.7362 6.76786 36.9616 6.76786 37.1909C6.76786 37.4203 6.76786 37.6523 6.76786 37.8884C6.76786 38.1244 6.76786 38.3659 6.76786 38.6113C6.76786 38.8567 6.76786 39.1062 6.76786 39.3611C6.76786 39.6159 6.76786 39.8761 6.76786 40.1417C6.51973 40.1739 6.28501 40.206 6.05834 40.2356C5.83301 40.2651 5.61707 40.2946 5.40918 40.3227C5.20128 40.3509 5.0001 40.3777 4.80427 40.4046C4.60845 40.4314 4.41799 40.4569 4.22888 40.4823C4.0411 40.5078 3.85467 40.5333 3.66958 40.5588C3.48448 40.5843 3.29805 40.6098 3.11028 40.6366C2.9225 40.6621 2.7307 40.6889 2.53622 40.7171C2.34174 40.7452 2.14055 40.7721 1.93132 40.8016C1.72208 40.8311 1.50748 40.8619 1.28215 40.8941C1.05682 40.9263 0.822106 40.9598 0.573975 40.996V34.9846C0.573975 34.7485 0.573975 34.5151 0.573975 34.2817V23.4015C0.573975 23.2004 0.573975 22.9992 0.573975 22.7993V11.0942C0.573975 10.8756 0.573975 10.6557 0.573975 10.4343V5.575C0.573975 5.33223 0.573975 5.08813 0.573975 4.84134V1.79268C0.573975 1.52979 0.573975 1.26557 0.573975 1H4.66344C4.86597 1 5.06716 1 5.26835 1H9.96272C10.2551 1 10.5408 1.00671 10.8198 1.01878C11.0988 1.03085 11.3683 1.04963 11.6312 1.07243C11.8941 1.09657 12.1503 1.12608 12.3984 1.16229C12.6466 1.1985 12.888 1.24008 13.1214 1.28837C13.3547 1.33665 13.5814 1.3903 13.8 1.45066C14.0187 1.51102 14.2306 1.57674 14.4358 1.64782C14.641 1.71891 14.8382 1.7967 15.0286 1.8812C15.2191 1.96436 15.4028 2.05422 15.5799 2.14945C15.7569 2.24468 15.9273 2.34661 16.0895 2.45257C16.2532 2.55987 16.4088 2.67254 16.5576 2.79191C16.7065 2.91128 16.85 3.03602 16.9855 3.16612C17.121 3.29622 17.2511 3.43437 17.3731 3.57654C17.4965 3.71871 17.6119 3.86759 17.7218 4.02183C17.8318 4.17608 17.9351 4.33703 18.0317 4.50334C18.1282 4.66966 18.2194 4.84268 18.3026 5.02106C18.3858 5.19945 18.4649 5.38454 18.536 5.575C18.6071 5.76546 18.6728 5.96262 18.7318 6.16515C18.7908 6.36768 18.8431 6.57691 18.8901 6.79151C18.937 7.00611 18.9773 7.22742 19.0121 7.45409C19.047 7.68076 19.0752 7.91414 19.098 8.15422C19.1208 8.39431 19.1382 8.63841 19.1489 8.89057C19.1597 9.14272 19.165 9.40024 19.165 9.66447C19.165 9.90187 19.165 10.1138 19.165 10.3136C19.165 10.5121 19.165 10.6972 19.165 10.877C19.165 11.0567 19.165 11.2324 19.165 11.4121C19.165 11.5918 19.165 11.7769 19.165 11.9754C19.165 12.1739 19.165 12.3872 19.165 12.6246C19.165 12.9009 19.157 13.1718 19.1436 13.4347C19.1302 13.6976 19.11 13.9551 19.0819 14.2059C19.055 14.4568 19.0202 14.7009 18.9799 14.9383C18.9397 15.1757 18.8914 15.4064 18.8378 15.6317C18.7828 15.8557 18.7224 16.0743 18.654 16.2862C18.5856 16.4981 18.5105 16.7033 18.4287 16.9032C18.3469 17.103 18.257 17.2948 18.1618 17.4826C18.0652 17.669 17.9619 17.8501 17.8519 18.0245C17.742 18.1988 17.6239 18.3665 17.4992 18.5288C17.3745 18.6911 17.243 18.8467 17.1035 18.9955C16.964 19.1444 16.8178 19.2893 16.6649 19.4261C16.512 19.5629 16.3511 19.6943 16.1821 19.8204C16.0144 19.9451 15.8387 20.0645 15.655 20.1785C15.4726 20.2912 15.2821 20.3985 15.0836 20.5004C15.2902 20.5715 15.4887 20.6506 15.6764 20.7378C15.8656 20.825 16.0453 20.9189 16.2156 21.0195C16.386 21.1201 16.5496 21.2301 16.7038 21.3454C16.8581 21.4608 17.0043 21.5841 17.1411 21.7142C17.2792 21.8443 17.408 21.9812 17.53 22.1247C17.6521 22.2682 17.7661 22.4184 17.8734 22.5753C17.9807 22.7323 18.08 22.8959 18.1725 23.0649C18.265 23.2339 18.3495 23.4109 18.4287 23.5933C18.5078 23.7757 18.5789 23.9649 18.6446 24.1593C18.7103 24.3538 18.7694 24.555 18.8217 24.7616C18.874 24.9681 18.9209 25.1814 18.9625 25.3987C19.0027 25.6173 19.0389 25.8413 19.0685 26.0706C19.098 26.3 19.1221 26.536 19.1409 26.7761C19.1597 27.0162 19.1731 27.263 19.1825 27.5138C19.1919 27.7646 19.1959 28.0221 19.1945 28.2837C19.1945 28.5425 19.1945 28.7853 19.1945 29.0187C19.1945 29.2521 19.1945 29.4734 19.1945 29.6866C19.1945 29.8999 19.1945 30.1064 19.1945 30.3063C19.1945 30.5075 19.1945 30.7033 19.1945 30.8978C19.1945 31.0923 19.1945 31.2854 19.1945 31.4799C19.1945 31.6744 19.1945 31.8702 19.1945 32.0714C19.1945 32.2726 19.1945 32.4778 19.1945 32.691C19.1945 32.9043 19.1945 33.1256 19.1945 33.359C19.1945 33.5923 19.1945 33.8351 19.1945 34.094C19.1945 34.3555 19.1945 34.6063 19.1986 34.8491C19.2026 35.0919 19.2079 35.3266 19.2187 35.5533C19.2294 35.7799 19.2428 35.9999 19.2629 36.2145C19.2831 36.4291 19.3085 36.637 19.3407 36.8409C19.3729 37.0447 19.4132 37.2446 19.4614 37.4404C19.5097 37.6376 19.5661 37.8307 19.6331 38.0225C19.7002 38.2143 19.7766 38.4047 19.8652 38.5952C19.6117 38.622 19.3716 38.6475 19.1422 38.6717C18.9115 38.6958 18.6916 38.7199 18.4796 38.7427C18.2677 38.7655 18.0625 38.7883 17.8627 38.8098C17.6628 38.8313 17.4683 38.8527 17.2765 38.8742C17.0847 38.8956 16.8943 38.9171 16.7052 38.9372C16.5161 38.9573 16.3256 38.9801 16.1338 39.0016C15.942 39.0231 15.7475 39.0459 15.5477 39.0687C15.3478 39.0915 15.1426 39.1156 14.9307 39.1398C14.7188 39.1639 14.4988 39.1894 14.2681 39.2162C14.0388 39.243 13.7987 39.2712 13.5452 39.3007L13.5291 39.3034ZM6.78798 6.59569C6.78798 6.8626 6.78798 7.1228 6.78798 7.3763C6.78798 7.62979 6.78798 7.87658 6.78798 8.11667C6.78798 8.35675 6.78798 8.59281 6.78798 8.82216C6.78798 9.05286 6.78798 9.27685 6.78798 9.49815C6.78798 9.71946 6.78798 9.9354 6.78798 10.15C6.78798 10.3633 6.78798 10.5738 6.78798 10.7817C6.78798 10.9896 6.78798 11.1948 6.78798 11.3987C6.78798 11.6026 6.78798 11.8038 6.78798 12.0063C6.78798 12.2075 6.78798 12.4073 6.78798 12.6085C6.78798 12.8084 6.78798 13.0095 6.78798 13.2107C6.78798 13.4119 6.78798 13.6144 6.78798 13.8183C6.78798 14.0222 6.78798 14.2274 6.78798 14.4353C6.78798 14.6432 6.78798 14.8538 6.78798 15.067C6.78798 15.2803 6.78798 15.4976 6.78798 15.7189C6.78798 15.9402 6.78798 16.1655 6.78798 16.3949C6.78798 16.6255 6.78798 16.8603 6.78798 17.1004C6.78798 17.3404 6.78798 17.5872 6.78798 17.8407C6.78798 18.0942 6.78798 18.3531 6.78798 18.6213C7.03075 18.6066 7.24266 18.5945 7.43983 18.5824C7.63699 18.5704 7.8194 18.5596 8.00181 18.5502C8.18422 18.5395 8.36663 18.5288 8.56379 18.5181C8.76096 18.5073 8.97287 18.4939 9.21698 18.4805C9.44902 18.4671 9.67167 18.4443 9.88358 18.4121C10.0968 18.3786 10.2994 18.3356 10.4939 18.2807C10.687 18.2257 10.8707 18.1599 11.0438 18.0808C11.2168 18.0017 11.3791 17.9105 11.5306 17.8058C11.6822 17.7012 11.8217 17.5819 11.9504 17.4491C12.0792 17.3163 12.1959 17.1688 12.3019 17.0051C12.4078 16.8415 12.5004 16.6631 12.5808 16.4659C12.6613 16.2701 12.7297 16.0569 12.7834 15.8262C12.837 15.5955 12.8799 15.3473 12.9081 15.0791C12.9363 14.8108 12.951 14.5252 12.951 14.218C12.951 13.9659 12.951 13.7352 12.951 13.5179C12.951 13.3006 12.951 13.0981 12.951 12.9009C12.951 12.7051 12.951 12.516 12.951 12.3268C12.951 12.1377 12.951 11.9486 12.951 11.7528C12.951 11.557 12.951 11.3531 12.951 11.1358C12.951 10.9185 12.951 10.6878 12.951 10.4357C12.951 10.1312 12.9403 9.84554 12.9161 9.57997C12.892 9.31306 12.8558 9.06627 12.8075 8.83692C12.7592 8.60756 12.6975 8.39565 12.6224 8.20251C12.5486 8.00937 12.4601 7.83366 12.3595 7.6754C12.2589 7.51713 12.1436 7.3763 12.0162 7.25156C11.8874 7.12683 11.7466 7.01952 11.5897 6.92966C11.4341 6.83846 11.2624 6.76469 11.0773 6.70567C10.8922 6.64666 10.6924 6.60508 10.4778 6.57825C10.2632 6.55143 10.0338 6.5407 9.78835 6.54472C9.54827 6.54875 9.33233 6.55277 9.13114 6.55679C8.92995 6.56082 8.74352 6.5635 8.56111 6.56752C8.3787 6.57021 8.20166 6.57423 8.01925 6.57691C7.83684 6.5796 7.6504 6.58362 7.44922 6.58764C7.24803 6.59167 7.03209 6.59569 6.792 6.59971L6.78798 6.59569Z" fill="#E40A18"/>
<path d="M29.4967 16.4566C29.7596 16.4472 30.0117 16.4378 30.2558 16.4284C30.5 16.419 30.736 16.411 30.964 16.4029C31.192 16.3949 31.4147 16.3868 31.6306 16.3801C31.8466 16.3721 32.0571 16.3654 32.2637 16.3586C32.4702 16.3519 32.6728 16.3452 32.874 16.3372C33.0751 16.3305 33.2723 16.3238 33.4708 16.3171C33.6693 16.3104 33.8651 16.3037 34.0623 16.297C34.2595 16.2902 34.458 16.2835 34.6592 16.2768C34.8604 16.2701 35.0629 16.2634 35.2694 16.2567C35.476 16.25 35.6866 16.2433 35.9025 16.2366C36.1184 16.2299 36.3397 16.2232 36.5691 16.2165C36.7985 16.2098 37.0332 16.2017 37.2773 16.195C37.5214 16.187 37.7735 16.1803 38.0364 16.1722C38.0364 16.4297 38.0364 16.6698 38.0351 16.8992C38.0351 17.1285 38.0351 17.3445 38.0351 17.5537C38.0351 17.7629 38.0351 17.9628 38.0351 18.1599C38.0351 18.3571 38.0351 18.5502 38.0351 18.742C38.0351 18.9352 38.0351 19.1283 38.0351 19.3241C38.0351 19.52 38.0351 19.7212 38.0351 19.9304C38.0351 20.1396 38.0351 20.3556 38.0351 20.5849C38.0351 20.8143 38.0351 21.0544 38.0337 21.3119C37.7709 21.3226 37.5187 21.332 37.2746 21.3427C37.0305 21.3535 36.7944 21.3628 36.5664 21.3722C36.3384 21.3816 36.1158 21.391 35.8998 21.4004C35.6839 21.4098 35.4733 21.4178 35.2654 21.4272C35.0589 21.4366 34.855 21.4447 34.6551 21.4541C34.454 21.4634 34.2568 21.4715 34.0583 21.4795C33.8611 21.4889 33.664 21.497 33.4668 21.5064C33.2696 21.5158 33.0711 21.5238 32.8699 21.5332C32.6688 21.5426 32.4662 21.552 32.2597 21.5614C32.0531 21.5707 31.8425 21.5801 31.6266 21.5909C31.4107 21.6016 31.1894 21.611 30.96 21.6217C30.7306 21.6324 30.4959 21.6445 30.2518 21.6552C30.0077 21.6673 29.7556 21.6794 29.4927 21.6928C29.4927 21.9449 29.4927 22.1904 29.4913 22.4291C29.4913 22.6679 29.4913 22.8999 29.49 23.1266C29.49 23.3533 29.49 23.5732 29.49 23.7892C29.49 24.0051 29.49 24.2157 29.49 24.4236C29.49 24.6315 29.49 24.834 29.49 25.0338C29.49 25.2337 29.49 25.4309 29.49 25.6267C29.49 25.8225 29.49 26.0143 29.49 26.2061C29.49 26.3979 29.49 26.5884 29.49 26.7775C29.49 26.9666 29.49 27.157 29.49 27.3462C29.49 27.5353 29.49 27.7257 29.49 27.9175C29.49 28.1093 29.49 28.3011 29.49 28.4969C29.49 28.6928 29.49 28.8886 29.49 29.0898C29.49 29.2896 29.49 29.4935 29.49 29.7001C29.49 29.9066 29.49 30.1185 29.49 30.3345C29.49 30.5504 29.49 30.7717 29.49 30.997C29.49 31.2224 29.49 31.4557 29.4886 31.6945C29.4886 31.9332 29.4887 32.1787 29.4873 32.4308C29.7395 32.4121 29.9849 32.3933 30.2237 32.3758C30.4624 32.3584 30.6944 32.341 30.9211 32.3249C31.1478 32.3088 31.3691 32.2927 31.585 32.2779C31.801 32.2632 32.0129 32.2471 32.2194 32.2337C32.4273 32.2189 32.6299 32.2055 32.831 32.1908C33.0309 32.1773 33.2281 32.1639 33.4239 32.1505C33.6184 32.1371 33.8115 32.1237 34.0033 32.1116C34.1951 32.0982 34.3855 32.0861 34.5747 32.0741C34.7638 32.062 34.9542 32.0486 35.1434 32.0365C35.3325 32.0244 35.5243 32.0124 35.7147 31.999C35.9065 31.9869 36.0997 31.9748 36.2941 31.9614C36.49 31.9493 36.6871 31.9373 36.887 31.9238C37.0868 31.9104 37.2907 31.8984 37.4986 31.8863C37.7065 31.8742 37.9171 31.8608 38.133 31.8474C38.3489 31.834 38.5702 31.8206 38.7969 31.8072C39.0236 31.7937 39.2556 31.7803 39.4957 31.7669C39.7344 31.7535 39.9799 31.7387 40.2334 31.724C40.2334 31.9802 40.2334 32.2203 40.2321 32.4483C40.2321 32.6763 40.2321 32.8922 40.2321 33.1001C40.2321 33.308 40.2321 33.5079 40.2321 33.7037C40.2321 33.8995 40.2321 34.0913 40.2321 34.2831C40.2321 34.4749 40.2321 34.6667 40.2321 34.8625C40.2321 35.0583 40.2321 35.2582 40.2321 35.4661C40.2321 35.674 40.2321 35.8899 40.2321 36.1179C40.2321 36.3459 40.2321 36.586 40.2307 36.8422C39.9692 36.8596 39.713 36.8771 39.4622 36.8932C39.21 36.9106 38.9632 36.9267 38.7205 36.9441C38.4777 36.9616 38.239 36.9777 38.0042 36.9938C37.7695 37.0099 37.5388 37.0273 37.3122 37.0434C37.0855 37.0595 36.8615 37.0756 36.6402 37.0917C36.4189 37.1078 36.2016 37.1239 35.987 37.14C35.7724 37.156 35.5605 37.1721 35.3499 37.1882C35.1407 37.2043 34.9328 37.2204 34.7276 37.2352C34.5224 37.2499 34.3185 37.2674 34.116 37.2821C33.9134 37.2982 33.7136 37.3143 33.5137 37.3291C33.3139 37.3452 33.1167 37.3613 32.9196 37.376C32.7224 37.3908 32.5252 37.4082 32.3294 37.4243C32.1336 37.4404 31.9378 37.4565 31.7419 37.4726C31.5461 37.4887 31.3503 37.5048 31.1545 37.5209C30.9587 37.537 30.7615 37.5544 30.5643 37.5705C30.3672 37.5866 30.1687 37.604 29.9702 37.6215C29.7703 37.6389 29.5705 37.6563 29.3693 37.6738C29.1668 37.6912 28.9642 37.7086 28.759 37.7274C28.5538 37.7462 28.3459 37.7636 28.1367 37.7824C27.9274 37.8012 27.7155 37.82 27.5009 37.8401C27.2863 37.8602 27.069 37.879 26.8491 37.9004C26.6291 37.9206 26.4051 37.942 26.1784 37.9621C25.9518 37.9836 25.7211 38.0051 25.4864 38.0279C25.2516 38.0507 25.0142 38.0735 24.7715 38.0963C24.5287 38.1191 24.2833 38.1432 24.0311 38.1687C23.779 38.1942 23.5241 38.2183 23.2639 38.2438C23.2639 37.9782 23.2639 37.714 23.2653 37.4525C23.2653 37.1909 23.2653 36.9321 23.2666 36.6745C23.2666 36.417 23.2666 36.1635 23.2679 35.91C23.2679 35.6579 23.2679 35.4071 23.2693 35.1589C23.2693 34.9108 23.2693 34.664 23.2693 34.4199C23.2693 34.1758 23.2693 33.933 23.2693 33.6929C23.2693 33.4529 23.2693 33.2141 23.2693 32.9767C23.2693 32.7393 23.2693 32.5046 23.2693 32.2712C23.2693 32.0378 23.2693 31.8058 23.2693 31.5765C23.2693 31.3458 23.2693 31.1178 23.2693 30.8911C23.2693 30.6644 23.2693 30.4391 23.2693 30.2151C23.2693 29.9911 23.2693 29.7685 23.2693 29.5471C23.2693 29.3258 23.2693 29.1059 23.2693 28.8873C23.2693 28.6686 23.2693 28.4513 23.2693 28.2354C23.2693 28.0195 23.2693 27.8049 23.2693 27.5903C23.2693 27.3757 23.2693 27.1637 23.2693 26.9518C23.2693 26.7399 23.2693 26.5293 23.2693 26.3201C23.2693 26.1109 23.2693 25.9016 23.2693 25.6937C23.2693 25.4858 23.2693 25.278 23.2693 25.0727C23.2693 24.8675 23.2693 24.661 23.2693 24.4558C23.2693 24.2506 23.2693 24.0467 23.2693 23.8428C23.2693 23.6389 23.2693 23.4364 23.2693 23.2339C23.2693 23.0314 23.2693 22.8288 23.2693 22.6276C23.2693 22.4265 23.2693 22.2253 23.2693 22.0241C23.2693 21.8229 23.2693 21.623 23.2693 21.4219C23.2693 21.2207 23.2693 21.0222 23.2693 20.8223C23.2693 20.6225 23.2693 20.4226 23.2693 20.2228C23.2693 20.0229 23.2693 19.8231 23.2693 19.6246C23.2693 19.4247 23.2693 19.2249 23.2693 19.0264C23.2693 18.8279 23.2693 18.6267 23.2693 18.4269C23.2693 18.227 23.2693 18.0272 23.2693 17.8273C23.2693 17.6275 23.2693 17.4263 23.2693 17.2251C23.2693 17.0239 23.2693 16.8227 23.2693 16.6215C23.2693 16.4203 23.2693 16.2178 23.2693 16.0153C23.2693 15.8128 23.2693 15.6102 23.2693 15.4064C23.2693 15.2025 23.2693 14.9986 23.2693 14.7934C23.2693 14.5882 23.2693 14.383 23.2693 14.1764C23.2693 13.9699 23.2693 13.7633 23.2693 13.5554C23.2693 13.3475 23.2693 13.1383 23.2693 12.9291C23.2693 12.7198 23.2693 12.5079 23.2693 12.2973C23.2693 12.0854 23.2693 11.8735 23.2693 11.6589C23.2693 11.4443 23.2693 11.2297 23.2693 11.0138C23.2693 10.7978 23.2693 10.5805 23.2693 10.3619C23.2693 10.1433 23.2693 9.92334 23.2693 9.70203C23.2693 9.48072 23.2693 9.25808 23.2693 9.03409C23.2693 8.8101 23.2693 8.58477 23.2693 8.3581C23.2693 8.13143 23.2693 7.90207 23.2693 7.67272C23.2693 7.44202 23.2693 7.21133 23.2693 6.97795C23.2693 6.74457 23.2693 6.50986 23.2693 6.27246C23.2693 6.03505 23.2693 5.79631 23.2693 5.55623C23.2693 5.31615 23.2693 5.07338 23.2693 4.82927C23.2693 4.58516 23.2693 4.33837 23.2693 4.09024C23.2693 3.84211 23.2693 3.5913 23.2706 3.33914C23.272 3.08699 23.2706 2.83215 23.272 2.57463C23.272 2.31711 23.272 2.05825 23.2733 1.79671C23.2733 1.53516 23.2733 1.27228 23.2746 1.00537H24.7835C25.0263 1.00537 25.2637 1.00537 25.4984 1.00537H40.2414C40.2414 1.26155 40.2414 1.50163 40.2401 1.72965C40.2401 1.95766 40.2401 2.1736 40.2401 2.38149C40.2401 2.58939 40.2401 2.78923 40.2401 2.98505C40.2401 3.18088 40.2401 3.37268 40.2401 3.56447C40.2401 3.75627 40.2401 3.94807 40.2401 4.14389C40.2401 4.33972 40.2401 4.53956 40.2401 4.74746C40.2401 4.95535 40.2401 5.17129 40.2401 5.3993C40.2401 5.62731 40.2401 5.8674 40.2388 6.12358C39.9853 6.12626 39.7398 6.12894 39.5011 6.13028C39.2623 6.13162 39.0303 6.13431 38.8036 6.13699C38.577 6.13967 38.3556 6.14101 38.1397 6.1437C37.9238 6.14638 37.7118 6.14772 37.5053 6.1504C37.2974 6.15308 37.0949 6.15443 36.8937 6.15711C36.6938 6.15979 36.4967 6.16113 36.3009 6.16381C36.1064 6.1665 35.9132 6.16784 35.7214 6.17052C35.5296 6.1732 35.3392 6.17454 35.1501 6.17723C34.9596 6.17991 34.7705 6.18125 34.5814 6.18393C34.3909 6.18662 34.2018 6.18796 34.01 6.19064C33.8182 6.19332 33.6251 6.19466 33.4306 6.19735C33.2361 6.20003 33.0376 6.20137 32.8377 6.20405C32.6379 6.20673 32.434 6.20808 32.2261 6.21076C32.0182 6.21344 31.8077 6.21612 31.5917 6.21881C31.3758 6.22149 31.1545 6.22417 30.9278 6.22685C30.7011 6.22954 30.4691 6.23222 30.2304 6.2349C29.9916 6.23758 29.7462 6.24027 29.4927 6.24429C29.4927 6.49913 29.4927 6.74726 29.4913 6.98734C29.4913 7.22742 29.4913 7.4608 29.49 7.68881C29.49 7.91683 29.49 8.13813 29.49 8.35407C29.49 8.57001 29.49 8.78193 29.49 8.98983C29.49 9.19772 29.49 9.40025 29.49 9.60144C29.49 9.80128 29.49 9.99979 29.49 10.1943C29.49 10.3901 29.49 10.5832 29.49 10.7764C29.49 10.9695 29.49 11.16 29.49 11.3518C29.49 11.5436 29.49 11.7354 29.49 11.9272C29.49 12.1203 29.49 12.3134 29.49 12.5093C29.49 12.7051 29.49 12.9022 29.49 13.1021C29.49 13.3019 29.49 13.5058 29.49 13.7137C29.49 13.9216 29.49 14.1322 29.49 14.3495C29.49 14.5654 29.49 14.7867 29.49 15.0147C29.49 15.2427 29.49 15.4761 29.4886 15.7162C29.4873 15.9563 29.4887 16.2044 29.4873 16.4592L29.4967 16.4566Z" fill="#E40A18"/>
<path d="M44.1177 1.00403H44.8796C45.125 1.00403 45.3638 1.00403 45.5958 1.00403H53.9571C54.2401 1.00403 54.5164 1.01073 54.786 1.02281C55.0556 1.03488 55.3185 1.05365 55.576 1.07914C55.8322 1.10462 56.083 1.13547 56.3258 1.17303C56.5699 1.21058 56.806 1.2535 57.0366 1.30313C57.2673 1.35275 57.4913 1.40774 57.7086 1.47078C57.9259 1.53248 58.1378 1.60088 58.3417 1.67331C58.5469 1.74708 58.7441 1.82621 58.9359 1.91205C59.1277 1.99789 59.3127 2.0891 59.4911 2.18701C59.6695 2.28492 59.8425 2.3882 60.0075 2.49684C60.1738 2.60548 60.3321 2.72083 60.485 2.84154C60.6379 2.96225 60.7841 3.08833 60.9249 3.22111C61.0644 3.3539 61.1985 3.49204 61.326 3.63556C61.4534 3.77907 61.5741 3.92929 61.6881 4.08354C61.8021 4.23912 61.9107 4.39873 62.0113 4.56504C62.1133 4.73136 62.2085 4.90304 62.297 5.08008C62.3855 5.25713 62.4687 5.44088 62.5438 5.62865C62.6203 5.81777 62.69 6.01091 62.753 6.21076C62.8161 6.4106 62.8738 6.61581 62.9234 6.82639C62.9744 7.03697 63.0186 7.25291 63.0562 7.47421C63.0937 7.69552 63.1259 7.92219 63.1501 8.15423C63.1742 8.38626 63.1943 8.62366 63.2064 8.86643C63.2185 9.10919 63.2252 9.35733 63.2252 9.61082C63.2252 9.87236 63.2252 10.1285 63.2252 10.3794C63.2252 10.6315 63.2252 10.8783 63.2252 11.1211C63.2252 11.3638 63.2252 11.6026 63.2252 11.8386C63.2252 12.0734 63.2252 12.3054 63.2252 12.5334C63.2252 12.7614 63.2252 12.9854 63.2252 13.2081C63.2252 13.4294 63.2252 13.648 63.2252 13.8639C63.2252 14.0799 63.2252 14.2931 63.2252 14.5037C63.2252 14.7143 63.2252 14.9235 63.2252 15.1301C63.2252 15.3366 63.2252 15.5418 63.2252 15.7444C63.2252 15.9469 63.2252 16.1481 63.2252 16.3493C63.2252 16.5491 63.2252 16.7476 63.2252 16.9461C63.2252 17.1446 63.2252 17.3404 63.2252 17.5376C63.2252 17.7348 63.2252 17.9306 63.2252 18.1264C63.2252 18.3222 63.2252 18.5181 63.2252 18.7139C63.2252 18.9097 63.2252 19.1055 63.2252 19.3027C63.2252 19.4998 63.2252 19.6957 63.2252 19.8942C63.2252 20.0927 63.2252 20.2912 63.2252 20.491C63.2252 20.6909 63.2252 20.8921 63.2252 21.0959C63.2252 21.2985 63.2252 21.5037 63.2252 21.7102C63.2252 21.9168 63.2252 22.1247 63.2252 22.3366C63.2252 22.5472 63.2252 22.7604 63.2252 22.9764C63.2252 23.1923 63.2252 23.4109 63.2252 23.6322C63.2252 23.8535 63.2252 24.0789 63.2252 24.3069C63.2252 24.5349 63.2252 24.7669 63.2252 25.0017C63.2252 25.2364 63.2252 25.4751 63.2252 25.7192C63.2252 25.962 63.2252 26.2088 63.2252 26.4609C63.2252 26.7131 63.2252 26.9693 63.2252 27.2295C63.2252 27.483 63.2185 27.7311 63.205 27.9739C63.1916 28.2166 63.1729 28.454 63.1474 28.6874C63.1219 28.9194 63.0897 29.1474 63.0521 29.3701C63.0146 29.5927 62.969 29.8087 62.918 30.0206C62.8671 30.2325 62.8094 30.4391 62.7463 30.6389C62.6833 30.8401 62.6122 31.0359 62.5358 31.2264C62.4593 31.4168 62.3762 31.6019 62.2876 31.7817C62.1991 31.9614 62.1025 32.1358 62.0006 32.3047C61.8987 32.4737 61.79 32.6374 61.676 32.7943C61.5607 32.9526 61.44 33.1041 61.3125 33.2517C61.1851 33.3992 61.051 33.54 60.9102 33.6755C60.7693 33.811 60.6231 33.9424 60.4689 34.0672C60.316 34.1919 60.1551 34.3113 59.9887 34.4253C59.8224 34.5393 59.6494 34.6479 59.471 34.7498C59.2913 34.8531 59.1062 34.9497 58.9144 35.0409C58.7226 35.1321 58.5241 35.2179 58.3189 35.2984C58.1137 35.3789 57.9018 35.4527 57.6845 35.5224C57.4672 35.5921 57.2419 35.6538 57.0112 35.7115C56.7805 35.7692 56.5417 35.8202 56.2976 35.8671C56.0535 35.9127 55.8027 35.9529 55.5452 35.9878C55.2877 36.0227 55.0248 36.0509 54.7538 36.0737C54.4843 36.0965 54.2066 36.1139 53.9236 36.1246C53.6607 36.1354 53.4059 36.1447 53.1604 36.1555C52.9136 36.1662 52.6749 36.1756 52.4429 36.185C52.2108 36.1944 51.9842 36.2051 51.7629 36.2145C51.5415 36.2239 51.327 36.2333 51.115 36.244C50.9031 36.2534 50.6966 36.2628 50.4914 36.2722C50.2875 36.2816 50.085 36.2909 49.8851 36.3003C49.6853 36.3097 49.4868 36.3191 49.2896 36.3285C49.0924 36.3379 48.8953 36.3473 48.6981 36.358C48.5009 36.3674 48.3024 36.3781 48.1026 36.3875C47.9027 36.3982 47.7016 36.4076 47.4963 36.4184C47.2925 36.4291 47.0846 36.4398 46.8727 36.4506C46.6607 36.4613 46.4461 36.4734 46.2248 36.4854C46.0035 36.4975 45.7782 36.5096 45.5462 36.523C45.3141 36.5364 45.0754 36.5498 44.8286 36.5632C44.5818 36.578 44.3283 36.5927 44.0654 36.6075C44.0654 36.3433 44.0654 36.083 44.0668 35.8242C44.0668 35.5653 44.0668 35.3091 44.0681 35.0543C44.0681 34.7995 44.0681 34.5473 44.0695 34.2978C44.0695 34.0484 44.0695 33.8002 44.0695 33.5548C44.0695 33.3093 44.0695 33.0652 44.0695 32.8238C44.0695 32.5824 44.0695 32.3423 44.0695 32.1049C44.0695 31.8675 44.0695 31.6314 44.0695 31.3981C44.0695 31.1647 44.0695 30.9313 44.0695 30.702C44.0695 30.4713 44.0695 30.2433 44.0695 30.0152C44.0695 29.7886 44.0695 29.5632 44.0695 29.3392C44.0695 29.1153 44.0695 28.8926 44.0695 28.6726C44.0695 28.4527 44.0695 28.2327 44.0695 28.0141C44.0695 27.7955 44.0695 27.5795 44.0695 27.3636C44.0695 27.1476 44.0695 26.9344 44.0695 26.7211C44.0695 26.5079 44.0695 26.296 44.0695 26.0854C44.0695 25.8748 44.0695 25.6642 44.0695 25.4563C44.0695 25.2471 44.0695 25.0405 44.0695 24.8327C44.0695 24.6248 44.0695 24.4195 44.0695 24.2143C44.0695 24.0091 44.0695 23.8053 44.0695 23.6014C44.0695 23.3975 44.0695 23.195 44.0695 22.9925C44.0695 22.7899 44.0695 22.5887 44.0695 22.3876C44.0695 22.1864 44.0695 21.9865 44.0695 21.7853C44.0695 21.5855 44.0695 21.3856 44.0695 21.1871C44.0695 20.9873 44.0695 20.7888 44.0695 20.5903C44.0695 20.3918 44.0695 20.1933 44.0695 19.9948C44.0695 19.7963 44.0695 19.5991 44.0695 19.4006C44.0695 19.2021 44.0695 19.0049 44.0695 18.8078C44.0695 18.6106 44.0695 18.4121 44.0695 18.2149C44.0695 18.0178 44.0695 17.8193 44.0695 17.6208C44.0695 17.4223 44.0695 17.2237 44.0695 17.0252C44.0695 16.8267 44.0695 16.6282 44.0695 16.4284C44.0695 16.2285 44.0695 16.03 44.0695 15.8302C44.0695 15.6303 44.0695 15.4292 44.0695 15.228C44.0695 15.0268 44.0695 14.8256 44.0695 14.6231C44.0695 14.4205 44.0695 14.218 44.0695 14.0141C44.0695 13.8103 44.0695 13.6064 44.0695 13.4012C44.0695 13.196 44.0695 12.9908 44.0695 12.7829C44.0695 12.5763 44.0695 12.3684 44.0695 12.1592C44.0695 11.95 44.0695 11.7407 44.0695 11.5301C44.0695 11.3196 44.0695 11.1077 44.0695 10.8944C44.0695 10.6811 44.0695 10.4665 44.0695 10.2519C44.0695 10.0373 44.0695 9.82006 44.0695 9.60143C44.0695 9.38281 44.0695 9.16419 44.0695 8.94288C44.0695 8.72157 44.0695 8.49893 44.0695 8.27628C44.0695 8.05363 44.0695 7.82696 44.0695 7.60029C44.0695 7.37362 44.0695 7.14427 44.0695 6.91357C44.0695 6.68288 44.0695 6.45084 44.0695 6.21746C44.0695 5.98409 44.0695 5.74803 44.0695 5.51062C44.0695 5.27322 44.0695 5.03314 44.0695 4.79172C44.0695 4.55029 44.0695 4.30618 44.0695 4.06073C44.0695 3.81529 44.0695 3.56715 44.0695 3.31768C44.0695 3.06821 44.0695 2.81606 44.0708 2.56122C44.0708 2.30638 44.0708 2.0502 44.0721 1.79134C44.0735 1.53248 44.0721 1.27094 44.0735 1.00805L44.1177 1.00403ZM50.3317 6.0431C50.3317 6.30867 50.3317 6.57021 50.3317 6.82907C50.3317 7.08793 50.3317 7.34277 50.3317 7.59493C50.3317 7.84708 50.3317 8.09521 50.3317 8.342C50.3317 8.58879 50.3317 8.83156 50.3317 9.07164C50.3317 9.31172 50.3317 9.54912 50.3317 9.78384C50.3317 10.0186 50.3317 10.2506 50.3317 10.4813C50.3317 10.7106 50.3317 10.9387 50.3317 11.164C50.3317 11.3893 50.3317 11.612 50.3317 11.8333C50.3317 12.0546 50.3317 12.2732 50.3317 12.4905C50.3317 12.7078 50.3317 12.9237 50.3317 13.137C50.3317 13.3502 50.3317 13.5635 50.3317 13.7741C50.3317 13.9846 50.3317 14.1939 50.3317 14.4018C50.3317 14.6097 50.3317 14.8162 50.3317 15.0214C50.3317 15.2266 50.3317 15.4318 50.3317 15.6344C50.3317 15.8382 50.3317 16.0408 50.3317 16.242C50.3317 16.4431 50.3317 16.6443 50.3317 16.8455C50.3317 17.0467 50.3317 17.2466 50.3317 17.4451C50.3317 17.6449 50.3317 17.8434 50.3317 18.0433C50.3317 18.2418 50.3317 18.4416 50.3317 18.6401C50.3317 18.8386 50.3317 19.0385 50.3317 19.237C50.3317 19.4355 50.3317 19.6353 50.3317 19.8352C50.3317 20.035 50.3317 20.2349 50.3317 20.4347C50.3317 20.6359 50.3317 20.8357 50.3317 21.0383C50.3317 21.2394 50.3317 21.4433 50.3317 21.6458C50.3317 21.8484 50.3317 22.0536 50.3317 22.2588C50.3317 22.464 50.3317 22.6706 50.3317 22.8785C50.3317 23.0863 50.3317 23.2956 50.3317 23.5062C50.3317 23.7167 50.3317 23.9287 50.3317 24.1433C50.3317 24.3565 50.3317 24.5725 50.3317 24.7897C50.3317 25.007 50.3317 25.2256 50.3317 25.4469C50.3317 25.6683 50.3317 25.8909 50.3317 26.1162C50.3317 26.3416 50.3317 26.5696 50.3317 26.7989C50.3317 27.0283 50.3317 27.2617 50.3317 27.4964C50.3317 27.7311 50.3317 27.9685 50.3317 28.2086C50.3317 28.4487 50.3317 28.6914 50.3317 28.9382C50.3317 29.1837 50.3317 29.4331 50.3317 29.6853C50.3317 29.9374 50.3317 30.1923 50.3317 30.4511C50.3317 30.71 50.3317 30.9715 50.3317 31.2371C50.5665 31.2277 50.7811 31.2197 50.9823 31.2116C51.1834 31.2036 51.3726 31.1969 51.555 31.1902C51.7374 31.1835 51.9131 31.1768 52.0888 31.1701C52.2645 31.1633 52.4402 31.1566 52.6226 31.1499C52.805 31.1432 52.9928 31.1365 53.1953 31.1298C53.3965 31.1231 53.6111 31.1151 53.8458 31.107C54.0658 31.099 54.2764 31.0815 54.4762 31.0507C54.676 31.0212 54.8665 30.9796 55.0449 30.9246C55.2233 30.871 55.3923 30.8039 55.5492 30.7234C55.7061 30.6429 55.851 30.5491 55.9851 30.4404C56.1179 30.3318 56.2399 30.2097 56.3486 30.0702C56.4572 29.9321 56.5538 29.7778 56.637 29.6075C56.7201 29.4372 56.7912 29.2507 56.8475 29.0455C56.9039 28.8416 56.9481 28.6203 56.9763 28.3803C57.0058 28.1402 57.0206 27.8813 57.0206 27.6037C57.0206 27.3435 57.0206 27.0886 57.0206 26.8378C57.0206 26.587 57.0206 26.3402 57.0206 26.0975C57.0206 25.8547 57.0206 25.6159 57.0206 25.3812C57.0206 25.1465 57.0206 24.9145 57.0206 24.6865C57.0206 24.4584 57.0206 24.2331 57.0206 24.0118C57.0206 23.7905 57.0206 23.5705 57.0206 23.3546C57.0206 23.1387 57.0206 22.9254 57.0206 22.7135C57.0206 22.5016 57.0206 22.2937 57.0206 22.0858C57.0206 21.8792 57.0206 21.674 57.0206 21.4701C57.0206 21.2663 57.0206 21.0651 57.0206 20.8652C57.0206 20.6654 57.0206 20.4655 57.0206 20.2684C57.0206 20.0699 57.0206 19.8727 57.0206 19.6769C57.0206 19.4811 57.0206 19.2852 57.0206 19.0894C57.0206 18.8936 57.0206 18.6991 57.0206 18.5046C57.0206 18.3102 57.0206 18.1143 57.0206 17.9199C57.0206 17.724 57.0206 17.5282 57.0206 17.3324C57.0206 17.1366 57.0206 16.9394 57.0206 16.7409C57.0206 16.5424 57.0206 16.3439 57.0206 16.144C57.0206 15.9442 57.0206 15.7417 57.0206 15.5391C57.0206 15.3353 57.0206 15.1314 57.0206 14.9235C57.0206 14.7156 57.0206 14.5077 57.0206 14.2958C57.0206 14.0839 57.0206 13.8706 57.0206 13.6547C57.0206 13.4387 57.0206 13.2201 57.0206 12.9975C57.0206 12.7748 57.0206 12.5508 57.0206 12.3228C57.0206 12.0948 57.0206 11.8628 57.0206 11.6281C57.0206 11.3933 57.0206 11.1546 57.0206 10.9118C57.0206 10.6691 57.0206 10.4223 57.0206 10.1715C57.0206 9.92065 57.0206 9.66447 57.0206 9.40561C57.0206 9.0931 57.0031 8.80607 56.9669 8.54185C56.9307 8.27762 56.877 8.03888 56.806 7.82025C56.7349 7.60297 56.6477 7.40715 56.5431 7.23279C56.4385 7.05843 56.3177 6.90552 56.1823 6.7714C56.0468 6.63727 55.8952 6.52327 55.7289 6.42804C55.5626 6.33281 55.3815 6.25502 55.1871 6.19332C54.9926 6.13162 54.7834 6.0887 54.562 6.06054C54.3407 6.03237 54.1047 6.01896 53.8579 6.0203C53.6245 6.0203 53.4099 6.02298 53.2087 6.02432C53.0075 6.02432 52.8184 6.02701 52.6374 6.02835C52.4549 6.02835 52.2806 6.03103 52.1049 6.03103C51.9292 6.03103 51.7548 6.03371 51.5724 6.03371C51.39 6.03371 51.2022 6.03639 51.001 6.03774C50.7998 6.03774 50.5852 6.04042 50.3519 6.04176L50.3317 6.0431Z" fill="#E40A18"/>
<path d="M67.1925 1.00402H73.4132C73.4132 1.27093 73.4132 1.53516 73.4132 1.7967C73.4132 2.05825 73.4132 2.31845 73.4132 2.57463C73.4132 2.8308 73.4132 3.08698 73.4132 3.33914C73.4132 3.59129 73.4132 3.84211 73.4132 4.09024C73.4132 4.33837 73.4132 4.58382 73.4132 4.82792C73.4132 5.07203 73.4132 5.31346 73.4132 5.55354C73.4132 5.79362 73.4132 6.03102 73.4132 6.26708C73.4132 6.50314 73.4132 6.73652 73.4132 6.96856C73.4132 7.20059 73.4132 7.43129 73.4132 7.66064C73.4132 7.89 73.4132 8.11667 73.4132 8.342C73.4132 8.56733 73.4132 8.79132 73.4132 9.01396C73.4132 9.23661 73.4132 9.45792 73.4132 9.67654C73.4132 9.8965 73.4132 10.1138 73.4132 10.3311C73.4132 10.5484 73.4132 10.763 73.4132 10.9776C73.4132 11.1922 73.4132 11.4054 73.4132 11.6173C73.4132 11.8292 73.4132 12.0412 73.4132 12.2504C73.4132 12.461 73.4132 12.6702 73.4132 12.8781C73.4132 13.086 73.4132 13.2939 73.4132 13.5004C73.4132 13.707 73.4132 13.9122 73.4132 14.1174C73.4132 14.3226 73.4132 14.5265 73.4132 14.7304C73.4132 14.9342 73.4132 15.1368 73.4132 15.3406C73.4132 15.5432 73.4132 15.7457 73.4132 15.9469C73.4132 16.1481 73.4132 16.3506 73.4132 16.5518C73.4132 16.753 73.4132 16.9542 73.4132 17.154C73.4132 17.3552 73.4132 17.555 73.4132 17.7549C73.4132 17.9547 73.4132 18.1559 73.4132 18.3558C73.4132 18.5556 73.4132 18.7568 73.4132 18.9566C73.4132 19.1565 73.4132 19.3577 73.4132 19.5575C73.4132 19.7587 73.4132 19.9586 73.4132 20.1597C73.4132 20.3609 73.4132 20.5621 73.4132 20.7646C73.4132 20.9658 73.4132 21.1684 73.4132 21.3709C73.4132 21.5734 73.4132 21.7773 73.4132 21.9812C73.4132 22.185 73.4132 22.3889 73.4132 22.5941C73.4132 22.7993 73.4132 23.0045 73.4132 23.2111C73.4132 23.4176 73.4132 23.6255 73.4132 23.8334C73.4132 24.0413 73.4132 24.2505 73.4132 24.4611C73.4132 24.6717 73.4132 24.8823 73.4132 25.0942C73.4132 25.3061 73.4132 25.5194 73.4132 25.734C73.4132 25.9486 73.4132 26.1645 73.4132 26.3805C73.4132 26.5977 73.4132 26.815 73.4132 27.035C73.4132 27.2549 73.4132 27.4749 73.4132 27.6976C73.4132 27.9202 73.4132 28.1442 73.4132 28.3695C73.4132 28.5949 73.4132 28.8215 73.4132 29.0509C73.4132 29.2802 73.4132 29.5096 73.4132 29.743C73.4132 29.975 73.4132 30.2097 73.4132 30.4444C73.4132 30.6805 73.4132 30.9179 73.4132 31.158C73.4132 31.3981 73.4132 31.6395 73.4132 31.8836C73.4132 32.1277 73.4132 32.3732 73.4132 32.6213C73.4132 32.8694 73.4132 33.1189 73.4132 33.3724C73.4132 33.6245 73.4132 33.8794 73.4132 34.1369C73.4132 34.3944 73.4132 34.6533 73.4132 34.9148C73.4132 35.1764 73.4132 35.4406 73.4132 35.7075C73.1637 35.7075 72.9263 35.7075 72.6997 35.7102C72.473 35.7102 72.2557 35.7115 72.0465 35.7129C71.8372 35.7129 71.6347 35.7155 71.4375 35.7155C71.2404 35.7155 71.0486 35.7182 70.8581 35.7196C70.669 35.7209 70.4812 35.7222 70.2948 35.7236C70.1084 35.7249 69.9206 35.7263 69.7315 35.729C69.5424 35.7303 69.3492 35.733 69.1534 35.7343C68.9562 35.737 68.7537 35.7383 68.5445 35.741C68.3352 35.7437 68.1179 35.7464 67.8913 35.7491C67.6646 35.7518 67.4272 35.7558 67.1777 35.7585C67.1777 35.4916 67.1777 35.226 67.1777 34.9644C67.1777 34.7016 67.1777 34.4427 67.1777 34.1852C67.1777 33.9277 67.1777 33.6728 67.1777 33.4193C67.1777 33.1658 67.1777 32.9164 67.1777 32.6669C67.1777 32.4188 67.1777 32.172 67.1777 31.9279C67.1777 31.6838 67.1777 31.4423 67.1777 31.2022C67.1777 30.9622 67.1777 30.7234 67.1777 30.4874C67.1777 30.2513 67.1777 30.0166 67.1777 29.7845C67.1777 29.5525 67.1777 29.3218 67.1777 29.0925C67.1777 28.8631 67.1777 28.6364 67.1777 28.4098C67.1777 28.1844 67.1777 27.9591 67.1777 27.7365C67.1777 27.5138 67.1777 27.2925 67.1777 27.0725C67.1777 26.8526 67.1777 26.6339 67.1777 26.4167C67.1777 26.1994 67.1777 25.9834 67.1777 25.7688C67.1777 25.5542 67.1777 25.341 67.1777 25.1277C67.1777 24.9158 67.1777 24.7039 67.1777 24.4933C67.1777 24.2827 67.1777 24.0735 67.1777 23.8656C67.1777 23.6577 67.1777 23.4498 67.1777 23.2419C67.1777 23.034 67.1777 22.8288 67.1777 22.6236C67.1777 22.4184 67.1777 22.2132 67.1777 22.0093C67.1777 21.8055 67.1777 21.6016 67.1777 21.3991C67.1777 21.1965 67.1777 20.994 67.1777 20.7915C67.1777 20.5889 67.1777 20.3878 67.1777 20.1866C67.1777 19.9854 67.1777 19.7842 67.1777 19.583C67.1777 19.3818 67.1777 19.182 67.1777 18.9808C67.1777 18.7796 67.1777 18.5797 67.1777 18.3786C67.1777 18.1774 67.1777 17.9775 67.1777 17.7763C67.1777 17.5752 67.1777 17.3753 67.1777 17.1741C67.1777 16.9729 67.1777 16.7717 67.1777 16.5706C67.1777 16.3694 67.1777 16.1668 67.1777 15.9657C67.1777 15.7631 67.1777 15.5606 67.1777 15.3581C67.1777 15.1555 67.1777 14.9517 67.1777 14.7478C67.1777 14.5439 67.1777 14.3387 67.1777 14.1335C67.1777 13.9283 67.1777 13.7217 67.1777 13.5152C67.1777 13.3086 67.1777 13.1007 67.1777 12.8915C67.1777 12.6823 67.1777 12.473 67.1777 12.2638C67.1777 12.0532 67.1777 11.8427 67.1777 11.6294C67.1777 11.4175 67.1777 11.2029 67.1777 10.9883C67.1777 10.7737 67.1777 10.5577 67.1777 10.3405C67.1777 10.1232 67.1777 9.90455 67.1777 9.68459C67.1777 9.46462 67.1777 9.24332 67.1777 9.02067C67.1777 8.79802 67.1777 8.57403 67.1777 8.34736C67.1777 8.12203 67.1777 7.89402 67.1777 7.66467C67.1777 7.43531 67.1777 7.20462 67.1777 6.97258C67.1777 6.74055 67.1777 6.50583 67.1777 6.26977C67.1777 6.03371 67.1777 5.79496 67.1777 5.55488C67.1777 5.3148 67.1777 5.07337 67.1777 4.82927C67.1777 4.58516 67.1777 4.33837 67.1777 4.09024C67.1777 3.84211 67.1777 3.59129 67.1777 3.33914C67.1777 3.08564 67.1777 2.8308 67.1777 2.57328C67.1777 2.31577 67.1777 2.05556 67.1777 1.79402C67.1777 1.53113 67.1777 1.26691 67.1777 1L67.1925 1.00402Z" fill="#E40A18"/>
<path d="M84.1687 16.4631C84.4369 16.4658 84.6931 16.4672 84.9413 16.4698C85.1894 16.4725 85.4268 16.4739 85.6575 16.4766C85.8882 16.4792 86.1122 16.4806 86.3295 16.4833C86.5467 16.4859 86.7587 16.4873 86.9679 16.49C87.1758 16.4926 87.381 16.494 87.5835 16.4967C87.786 16.4994 87.9872 16.5007 88.1884 16.5034C88.3896 16.5061 88.5908 16.5087 88.7933 16.5101C88.9959 16.5128 89.2011 16.5154 89.409 16.5181C89.6168 16.5208 89.8301 16.5235 90.0474 16.5262C90.2647 16.5289 90.4887 16.5315 90.7194 16.5356C90.9501 16.5396 91.1888 16.5423 91.4356 16.5463C91.6837 16.5503 91.9399 16.5543 92.2081 16.5584C92.2081 16.8078 92.2081 17.0426 92.2081 17.2652C92.2081 17.4879 92.2081 17.6984 92.2081 17.9023C92.2081 18.1048 92.2081 18.3006 92.2081 18.4924C92.2081 18.6842 92.2081 18.872 92.2081 19.0585C92.2081 19.2462 92.2081 19.434 92.2081 19.6245C92.2081 19.8163 92.2081 20.0107 92.2081 20.2146C92.2081 20.4171 92.2081 20.6291 92.2081 20.8517C92.2081 21.0744 92.2081 21.3091 92.2081 21.5585C91.9399 21.5532 91.6837 21.5478 91.4356 21.5438C91.1875 21.5384 90.9501 21.5344 90.7194 21.5304C90.4887 21.5264 90.2647 21.5223 90.0474 21.5183C89.8301 21.5143 89.6168 21.5103 89.409 21.5076C89.2011 21.5049 88.9959 21.5009 88.7933 21.4968C88.5908 21.4942 88.3896 21.4901 88.1884 21.4875C87.9872 21.4848 87.786 21.4807 87.5835 21.4781C87.381 21.4754 87.1758 21.4727 86.9679 21.4687C86.76 21.466 86.5467 21.4633 86.3295 21.4593C86.1122 21.4566 85.8882 21.4539 85.6575 21.4512C85.4268 21.4486 85.188 21.4459 84.9413 21.4419C84.6945 21.4378 84.4369 21.4365 84.1687 21.4325C84.1687 21.694 84.1687 21.9488 84.1687 22.1983C84.1687 22.4478 84.1687 22.6932 84.1687 22.932C84.1687 23.1707 84.1687 23.4068 84.1687 23.6361C84.1687 23.8655 84.1687 24.0922 84.1687 24.3148C84.1687 24.5375 84.1687 24.7561 84.1687 24.9707C84.1687 25.1866 84.1687 25.3985 84.1687 25.6078C84.1687 25.817 84.1687 26.0236 84.1687 26.2288C84.1687 26.4326 84.1687 26.6352 84.1687 26.8364C84.1687 27.0375 84.1687 27.236 84.1687 27.4346C84.1687 27.6331 84.1687 27.8302 84.1687 28.026C84.1687 28.2219 84.1687 28.419 84.1687 28.6149C84.1687 28.8107 84.1687 29.0065 84.1687 29.2037C84.1687 29.3995 84.1687 29.5966 84.1687 29.7952C84.1687 29.9937 84.1687 30.1922 84.1687 30.3933C84.1687 30.5945 84.1687 30.7971 84.1687 31.0009C84.1687 31.2048 84.1687 31.4127 84.1687 31.6219C84.1687 31.8312 84.1687 32.0431 84.1687 32.259C84.1687 32.475 84.1687 32.6923 84.1687 32.9149C84.1687 33.1375 84.1687 33.3629 84.1687 33.5936C84.1687 33.8243 84.1687 34.059 84.1687 34.2977C84.1687 34.5378 84.1687 34.7819 84.1687 35.0314C84.1687 35.2809 84.1687 35.537 84.1687 35.7972C83.9192 35.7932 83.6818 35.7879 83.4552 35.7838C83.2285 35.7798 83.0112 35.7758 82.802 35.7731C82.5927 35.7704 82.3902 35.7664 82.193 35.7637C81.9959 35.761 81.8041 35.7583 81.615 35.7557C81.4258 35.753 81.2381 35.7503 81.0516 35.7476C80.8652 35.7449 80.6774 35.7436 80.4883 35.7409C80.2992 35.7382 80.106 35.7369 79.9102 35.7342C79.7131 35.7315 79.5105 35.7302 79.3013 35.7288C79.0921 35.7275 78.8748 35.7248 78.6481 35.7235C78.4214 35.7221 78.184 35.7194 77.9346 35.7181C77.9346 35.4512 77.9346 35.187 77.9346 34.9241C77.9346 34.6625 77.9346 34.4023 77.9346 34.1448C77.9346 33.8873 77.9346 33.6325 77.9346 33.3803C77.9346 33.1282 77.9346 32.8773 77.9346 32.6292C77.9346 32.3811 77.9346 32.1356 77.9346 31.8915C77.9346 31.6474 77.9346 31.406 77.9346 31.1659C77.9346 30.9258 77.9346 30.6884 77.9346 30.4524C77.9346 30.2163 77.9346 29.9829 77.9346 29.7495C77.9346 29.5175 77.9346 29.2868 77.9346 29.0575C77.9346 28.8281 77.9346 28.6014 77.9346 28.3761C77.9346 28.1508 77.9346 27.9268 77.9346 27.7041C77.9346 27.4815 77.9346 27.2602 77.9346 27.0416C77.9346 26.8216 77.9346 26.6043 77.9346 26.387C77.9346 26.1698 77.9346 25.9538 77.9346 25.7392C77.9346 25.5246 77.9346 25.3114 77.9346 25.0994C77.9346 24.8875 77.9346 24.6756 77.9346 24.4664C77.9346 24.2558 77.9346 24.0466 77.9346 23.8387C77.9346 23.6308 77.9346 23.4229 77.9346 23.2163C77.9346 23.0098 77.9346 22.8046 77.9346 22.5994C77.9346 22.3941 77.9346 22.1903 77.9346 21.9864C77.9346 21.7825 77.9346 21.5787 77.9346 21.3761C77.9346 21.1736 77.9346 20.9711 77.9346 20.7699C77.9346 20.5687 77.9346 20.3662 77.9346 20.165C77.9346 19.9638 77.9346 19.7626 77.9346 19.5628C77.9346 19.3616 77.9346 19.1617 77.9346 18.9605C77.9346 18.7594 77.9346 18.5595 77.9346 18.3597C77.9346 18.1598 77.9346 17.9586 77.9346 17.7588C77.9346 17.5589 77.9346 17.3578 77.9346 17.1566C77.9346 16.9554 77.9346 16.7555 77.9346 16.5543C77.9346 16.3532 77.9346 16.152 77.9346 15.9494C77.9346 15.7469 77.9346 15.5457 77.9346 15.3432C77.9346 15.1407 77.9346 14.9368 77.9346 14.7329C77.9346 14.5291 77.9346 14.3252 77.9346 14.12C77.9346 13.9148 77.9346 13.7096 77.9346 13.503C77.9346 13.2964 77.9346 13.0886 77.9346 12.8807C77.9346 12.6728 77.9346 12.4635 77.9346 12.253C77.9346 12.0424 77.9346 11.8318 77.9346 11.6199C77.9346 11.408 77.9346 11.1947 77.9346 10.9801C77.9346 10.7655 77.9346 10.5496 77.9346 10.3323C77.9346 10.115 77.9346 9.89638 77.9346 9.67776C77.9346 9.4578 77.9346 9.23649 77.9346 9.01518C77.9346 8.79388 77.9346 8.56855 77.9346 8.34322C77.9346 8.11789 77.9346 7.88988 77.9346 7.66186C77.9346 7.43251 77.9346 7.20316 77.9346 6.96978C77.9346 6.73774 77.9346 6.50302 77.9346 6.26696C77.9346 6.0309 77.9346 5.7935 77.9346 5.55342C77.9346 5.31334 77.9346 5.07191 77.9346 4.8278C77.9346 4.5837 77.9346 4.33825 77.9346 4.09012C77.9346 3.84199 77.9346 3.59117 77.9346 3.33902C77.9346 3.08686 77.9346 2.83203 77.9346 2.57451C77.9346 2.31699 77.9346 2.05812 77.9346 1.79524C77.9346 1.53236 77.9346 1.26813 77.9346 1.00122H94.3917C94.3917 1.25203 94.3917 1.48675 94.3917 1.7094C94.3917 1.93205 94.3917 2.14396 94.3917 2.34783C94.3917 2.5517 94.3917 2.74753 94.3917 2.93933C94.3917 3.13112 94.3917 3.3189 94.3917 3.50667C94.3917 3.69445 94.3917 3.88222 94.3917 4.07402C94.3917 4.26582 94.3917 4.46164 94.3917 4.66551C94.3917 4.86938 94.3917 5.07996 94.3917 5.30395C94.3917 5.52794 94.3917 5.76265 94.3917 6.01213C94.1355 6.01079 93.8874 6.00944 93.6473 6.0081C93.4059 6.0081 93.1725 6.00542 92.9445 6.00408C92.7165 6.00408 92.4952 6.0014 92.2779 6.0014C92.0606 6.0014 91.8487 5.99871 91.6408 5.99871C91.4329 5.99871 91.229 5.99737 91.0278 5.99603C90.8267 5.99603 90.6295 5.99469 90.4323 5.99335C90.2365 5.99335 90.042 5.99201 89.8489 5.99067C89.6557 5.99067 89.464 5.98933 89.2722 5.98798C89.0804 5.98798 88.8885 5.98664 88.6954 5.9853C88.5023 5.9853 88.3078 5.98396 88.112 5.98262C87.9161 5.98262 87.7176 5.98128 87.5165 5.97994C87.3153 5.97994 87.1114 5.9786 86.9035 5.97725C86.6956 5.97725 86.4837 5.97591 86.2664 5.97457C86.0491 5.97457 85.8278 5.97323 85.5998 5.97189C85.3718 5.97189 85.1384 5.97055 84.897 5.96921C84.6556 5.96921 84.4074 5.96786 84.1526 5.96652C84.1526 6.22807 84.1526 6.4829 84.1526 6.72969C84.1526 6.97648 84.1526 7.21657 84.1526 7.44995C84.1526 7.68332 84.1526 7.91133 84.1526 8.13264C84.1526 8.35395 84.1526 8.57257 84.1526 8.78449C84.1526 8.99775 84.1526 9.20698 84.1526 9.41219C84.1526 9.6174 84.1526 9.82127 84.1526 10.0211C84.1526 10.2223 84.1526 10.4208 84.1526 10.618C84.1526 10.8151 84.1526 11.0123 84.1526 11.2095C84.1526 11.4066 84.1526 11.6025 84.1526 11.801C84.1526 11.9981 84.1526 12.198 84.1526 12.3978C84.1526 12.599 84.1526 12.8015 84.1526 13.0067C84.1526 13.212 84.1526 13.4212 84.1526 13.6344C84.1526 13.8477 84.1526 14.065 84.1526 14.2863C84.1526 14.5076 84.1526 14.7356 84.1526 14.969C84.1526 15.2024 84.1526 15.4424 84.1526 15.6892C84.1526 15.936 84.1526 16.1895 84.1526 16.4524L84.1687 16.4631Z" fill="#E40A18"/>
<path d="M97.3922 1.00403H103.613C103.613 1.26825 103.613 1.53114 103.614 1.79C103.614 2.04886 103.614 2.30504 103.614 2.55988C103.614 2.81337 103.614 3.06419 103.614 3.31366C103.614 3.56179 103.614 3.80858 103.614 4.05269C103.614 4.29679 103.614 4.53822 103.614 4.77696C103.614 5.0157 103.614 5.2531 103.614 5.48782C103.614 5.72254 103.614 5.95458 103.614 6.18527C103.614 6.41597 103.614 6.64398 103.614 6.87065C103.614 7.09732 103.614 7.32265 103.614 7.5453C103.614 7.76795 103.614 7.98925 103.614 8.20922C103.614 8.42918 103.614 8.64646 103.614 8.86375C103.614 9.08103 103.614 9.29563 103.614 9.50889C103.614 9.72215 103.614 9.9354 103.614 10.146C103.614 10.3566 103.614 10.5671 103.614 10.775C103.614 10.9843 103.614 11.1908 103.614 11.3974C103.614 11.6039 103.614 11.8091 103.614 12.0143C103.614 12.2196 103.614 12.4234 103.614 12.6259C103.614 12.8285 103.614 13.031 103.614 13.2335C103.614 13.4347 103.614 13.6359 103.614 13.8371C103.614 14.0383 103.614 14.2381 103.614 14.438C103.614 14.6378 103.614 14.8377 103.614 15.0362C103.614 15.2347 103.614 15.4345 103.614 15.633C103.614 15.8315 103.614 16.03 103.614 16.2285C103.614 16.427 103.614 16.6256 103.614 16.8241C103.614 17.0226 103.614 17.2211 103.614 17.4209C103.614 17.6194 103.614 17.8193 103.614 18.0191C103.614 18.219 103.614 18.4188 103.614 18.62C103.614 18.8212 103.614 19.021 103.614 19.2236C103.614 19.4247 103.614 19.6273 103.614 19.8311C103.614 20.0337 103.614 20.2375 103.614 20.4427C103.614 20.648 103.614 20.8532 103.614 21.0597C103.614 21.2663 103.614 21.4742 103.614 21.6821C103.614 21.8913 103.614 22.1005 103.614 22.3111C103.614 22.5217 103.614 22.7349 103.614 22.9482C103.614 23.1615 103.614 23.3774 103.614 23.5933C103.614 23.8093 103.614 24.0279 103.614 24.2479C103.614 24.4678 103.614 24.6891 103.614 24.9118C103.614 25.1344 103.614 25.3598 103.614 25.5864C103.614 25.8131 103.614 26.0411 103.614 26.2718C103.614 26.5025 103.614 26.7345 103.614 26.9693C103.614 27.204 103.614 27.4414 103.614 27.6801C103.614 27.9189 103.614 28.1603 103.614 28.4044C103.614 28.6485 103.614 28.894 103.614 29.1434C103.614 29.3916 103.614 29.6437 103.614 29.8972C103.614 30.1507 103.614 30.4069 103.616 30.6671C103.616 30.926 103.616 31.1875 103.617 31.4531C103.873 31.4651 104.121 31.4772 104.363 31.4893C104.604 31.5013 104.837 31.5134 105.067 31.5241C105.295 31.5362 105.517 31.5469 105.735 31.5577C105.952 31.5684 106.164 31.5805 106.372 31.5912C106.58 31.6019 106.784 31.6127 106.985 31.6234C107.186 31.6341 107.385 31.6449 107.58 31.6556C107.776 31.6663 107.971 31.677 108.164 31.6878C108.357 31.6985 108.549 31.7092 108.741 31.72C108.932 31.7307 109.124 31.7414 109.317 31.7535C109.51 31.7642 109.705 31.7763 109.901 31.787C110.097 31.7991 110.295 31.8098 110.496 31.8219C110.697 31.834 110.901 31.846 111.109 31.8581C111.317 31.8702 111.529 31.8836 111.746 31.897C111.964 31.9104 112.185 31.9238 112.413 31.9386C112.641 31.9533 112.874 31.9681 113.116 31.9829C113.357 31.9976 113.605 32.0137 113.86 32.0311C113.86 32.29 113.86 32.5328 113.861 32.7621C113.861 32.9928 113.861 33.2101 113.861 33.4207C113.861 33.6312 113.861 33.8324 113.861 34.0309C113.861 34.2294 113.861 34.4226 113.861 34.6171C113.861 34.8115 113.861 35.0047 113.861 35.2032C113.861 35.4017 113.861 35.6029 113.861 35.8135C113.861 36.024 113.861 36.2413 113.861 36.472C113.861 36.7027 113.861 36.9441 113.863 37.203C113.6 37.1829 113.341 37.1641 113.088 37.1453C112.834 37.1265 112.586 37.1078 112.342 37.0903C112.098 37.0729 111.858 37.0555 111.623 37.038C111.387 37.0206 111.156 37.0045 110.928 36.9884C110.7 36.9723 110.476 36.9562 110.255 36.9415C110.033 36.9267 109.815 36.9106 109.6 36.8972C109.386 36.8838 109.172 36.8677 108.962 36.8543C108.751 36.8409 108.543 36.8261 108.337 36.8127C108.13 36.7993 107.926 36.7859 107.724 36.7725C107.521 36.759 107.32 36.747 107.119 36.7336C106.919 36.7215 106.719 36.7081 106.521 36.696C106.322 36.6839 106.124 36.6719 105.927 36.6598C105.729 36.6477 105.531 36.6356 105.334 36.6236C105.137 36.6115 104.938 36.6008 104.74 36.5887C104.541 36.5766 104.341 36.5659 104.141 36.5538C103.942 36.5418 103.739 36.531 103.536 36.519C103.334 36.5082 103.129 36.4962 102.922 36.4854C102.716 36.4747 102.508 36.4626 102.297 36.4519C102.087 36.4412 101.873 36.4291 101.659 36.4184C101.444 36.4076 101.224 36.3956 101.003 36.3848C100.782 36.3741 100.556 36.362 100.328 36.3513C100.1 36.3406 99.8682 36.3285 99.6321 36.3178C99.396 36.3057 99.156 36.295 98.9118 36.2829C98.6677 36.2708 98.4183 36.2601 98.1648 36.248C97.9113 36.236 97.6524 36.2252 97.3882 36.2132C97.3882 35.9476 97.3882 35.6847 97.3882 35.4232C97.3882 35.163 97.3882 34.9041 97.3882 34.6479C97.3882 34.3917 97.3882 34.1382 97.3882 33.8861C97.3882 33.6339 97.3882 33.3858 97.3882 33.1377C97.3882 32.8909 97.3882 32.6454 97.3882 32.4027C97.3882 32.1599 97.3882 31.9185 97.3882 31.6797C97.3882 31.441 97.3882 31.2036 97.3882 30.9689C97.3882 30.7342 97.3882 30.5008 97.3882 30.2687C97.3882 30.0367 97.3882 29.8073 97.3882 29.5793C97.3882 29.3513 97.3882 29.1247 97.3882 28.8993C97.3882 28.674 97.3882 28.4513 97.3882 28.2287C97.3882 28.0061 97.3882 27.7861 97.3882 27.5675C97.3882 27.3488 97.3882 27.1302 97.3882 26.9143C97.3882 26.6983 97.3882 26.4824 97.3882 26.2678C97.3882 26.0532 97.3882 25.8413 97.3882 25.6294C97.3882 25.4174 97.3882 25.2069 97.3882 24.9976C97.3882 24.7884 97.3882 24.5792 97.3882 24.3713C97.3882 24.1634 97.3882 23.9568 97.3882 23.7503C97.3882 23.5437 97.3882 23.3385 97.3882 23.1346C97.3882 22.9294 97.3882 22.7256 97.3882 22.523C97.3882 22.3192 97.3882 22.1166 97.3882 21.9154C97.3882 21.7129 97.3882 21.5117 97.3882 21.3105C97.3882 21.1093 97.3882 20.9082 97.3882 20.7083C97.3882 20.5085 97.3882 20.3073 97.3882 20.1074C97.3882 19.9076 97.3882 19.7077 97.3882 19.5079C97.3882 19.3081 97.3882 19.1095 97.3882 18.9097C97.3882 18.7099 97.3882 18.5113 97.3882 18.3115C97.3882 18.1117 97.3882 17.9132 97.3882 17.7133C97.3882 17.5135 97.3882 17.3136 97.3882 17.1138C97.3882 16.9139 97.3882 16.7141 97.3882 16.5129C97.3882 16.3117 97.3882 16.1119 97.3882 15.9107C97.3882 15.7095 97.3882 15.5083 97.3882 15.3058C97.3882 15.1032 97.3882 14.9007 97.3882 14.6982C97.3882 14.4943 97.3882 14.2904 97.3882 14.0866C97.3882 13.8814 97.3882 13.6761 97.3882 13.4709C97.3882 13.2644 97.3882 13.0578 97.3882 12.8499C97.3882 12.642 97.3882 12.4328 97.3882 12.2236C97.3882 12.0143 97.3882 11.8038 97.3882 11.5918C97.3882 11.3799 97.3882 11.1667 97.3882 10.9534C97.3882 10.7402 97.3882 10.5242 97.3882 10.3069C97.3882 10.091 97.3882 9.87237 97.3882 9.65374C97.3882 9.43512 97.3882 9.21381 97.3882 8.99251C97.3882 8.76986 97.3882 8.54721 97.3882 8.32188C97.3882 8.09655 97.3882 7.86988 97.3882 7.64187C97.3882 7.41386 97.3882 7.18316 97.3882 6.95247C97.3882 6.72043 97.3882 6.48705 97.3882 6.25234C97.3882 6.01762 97.3882 5.78022 97.3882 5.54147C97.3882 5.30273 97.3882 5.06131 97.3882 4.81854C97.3882 4.57577 97.3882 4.33033 97.3882 4.08354C97.3882 3.83675 97.3882 3.58727 97.3882 3.33512C97.3882 3.08296 97.3882 2.82947 97.3882 2.57329C97.3882 2.31711 97.3882 2.05825 97.3882 1.79805C97.3882 1.53785 97.3882 1.27362 97.3882 1.00805L97.3922 1.00403Z" fill="#E40A18"/>
<path d="M116.564 1.00403H122.785C122.785 1.26825 122.785 1.5298 122.786 1.78866C122.787 2.04752 122.786 2.30504 122.787 2.55988C122.787 2.81471 122.787 3.06687 122.789 3.31768C122.789 3.5685 122.789 3.81663 122.79 4.06342C122.79 4.31021 122.79 4.55431 122.791 4.79708C122.793 5.03985 122.791 5.27993 122.793 5.51867C122.793 5.75741 122.793 5.99482 122.793 6.22953C122.793 6.46425 122.793 6.69763 122.793 6.92967C122.793 7.1617 122.793 7.39105 122.793 7.61907C122.793 7.84708 122.793 8.07375 122.793 8.29908C122.793 8.52441 122.793 8.7484 122.793 8.96971C122.793 9.19235 122.793 9.41232 122.793 9.63228C122.793 9.85225 122.793 10.0695 122.793 10.2868C122.793 10.5041 122.793 10.72 122.793 10.9333C122.793 11.1479 122.793 11.3612 122.793 11.5731C122.793 11.785 122.793 11.9969 122.793 12.2061C122.793 12.4167 122.793 12.6259 122.793 12.8338C122.793 13.0417 122.793 13.2496 122.793 13.4562C122.793 13.6627 122.793 13.8679 122.793 14.0732C122.793 14.2784 122.793 14.4822 122.793 14.6848C122.793 14.8886 122.793 15.0912 122.793 15.2924C122.793 15.4949 122.793 15.6961 122.793 15.8973C122.793 16.0984 122.793 16.2983 122.793 16.4995C122.793 16.7007 122.793 16.8992 122.793 17.099C122.793 17.2989 122.793 17.4974 122.793 17.6959C122.793 17.8944 122.793 18.0929 122.793 18.2914C122.793 18.4899 122.793 18.6884 122.793 18.8856C122.793 19.0827 122.793 19.2812 122.793 19.4797C122.793 19.6782 122.793 19.8754 122.793 20.0739C122.793 20.2724 122.793 20.4696 122.793 20.6681C122.793 20.8666 122.793 21.0651 122.793 21.2636C122.793 21.4621 122.793 21.6619 122.793 21.8604C122.793 22.0603 122.793 22.2588 122.793 22.46C122.793 22.6598 122.793 22.861 122.793 23.0622C122.793 23.2634 122.793 23.4646 122.793 23.6671C122.793 23.8696 122.793 24.0722 122.793 24.2747C122.793 24.4772 122.793 24.6824 122.793 24.8863C122.793 25.0915 122.793 25.2967 122.793 25.5033C122.793 25.7098 122.793 25.9164 122.793 26.1256C122.793 26.3335 122.793 26.5427 122.793 26.7533C122.793 26.9639 122.793 27.1745 122.793 27.3864C122.793 27.5983 122.793 27.8116 122.793 28.0262C122.793 28.2408 122.793 28.4567 122.793 28.6726C122.793 28.8899 122.793 29.1072 122.793 29.3272C122.793 29.5471 122.793 29.7671 122.793 29.9898C122.793 30.2124 122.793 30.4364 122.793 30.6617C122.793 30.887 122.793 31.1137 122.793 31.3417C122.793 31.5697 122.793 31.8004 122.793 32.0311C122.793 32.2632 122.793 32.4965 122.793 32.7313C122.793 32.966 122.793 33.2034 122.794 33.4421C122.794 33.6809 122.794 33.921 122.795 34.1637C122.795 34.4065 122.795 34.6506 122.797 34.8974C122.797 35.1442 122.797 35.3923 122.798 35.6431C122.798 35.8939 122.798 36.1461 122.799 36.4009C122.799 36.6558 122.799 36.9133 122.801 37.1721C122.801 37.431 122.801 37.6925 122.802 37.9568C122.554 37.934 122.317 37.9112 122.091 37.891C121.865 37.8696 121.649 37.8508 121.439 37.832C121.23 37.8133 121.029 37.7945 120.833 37.777C120.637 37.7596 120.446 37.7422 120.256 37.7261C120.067 37.71 119.881 37.6925 119.694 37.6764C119.508 37.6604 119.322 37.6443 119.132 37.6282C118.943 37.6121 118.752 37.596 118.556 37.5785C118.359 37.5624 118.157 37.545 117.948 37.5276C117.739 37.5101 117.523 37.4914 117.296 37.4739C117.07 37.4551 116.834 37.4364 116.584 37.4163C116.584 37.152 116.584 36.8891 116.583 36.6289C116.583 36.3687 116.583 36.1112 116.581 35.855C116.581 35.5989 116.581 35.3467 116.58 35.0945C116.579 34.8424 116.58 34.5943 116.579 34.3475C116.579 34.1007 116.579 33.8552 116.577 33.6125C116.577 33.3697 116.577 33.1283 116.576 32.8895C116.575 32.6508 116.576 32.4134 116.575 32.1773C116.573 31.9413 116.575 31.7079 116.573 31.4759C116.573 31.2438 116.573 31.0131 116.572 30.7851C116.572 30.5571 116.572 30.3291 116.572 30.1038C116.572 29.8784 116.572 29.6544 116.572 29.4318C116.572 29.2091 116.572 28.9878 116.572 28.7692C116.572 28.5493 116.572 28.3306 116.572 28.1147C116.572 27.8974 116.572 27.6815 116.572 27.4669C116.572 27.2523 116.572 27.039 116.572 26.8271C116.572 26.6152 116.572 26.4033 116.572 26.194C116.572 25.9834 116.572 25.7742 116.572 25.5663C116.572 25.3584 116.572 25.1505 116.572 24.944C116.572 24.7374 116.572 24.5322 116.572 24.327C116.572 24.1218 116.572 23.9179 116.572 23.7141C116.572 23.5102 116.572 23.3077 116.572 23.1051C116.572 22.9026 116.572 22.7014 116.572 22.5002C116.572 22.299 116.572 22.0978 116.572 21.898C116.572 21.6982 116.572 21.497 116.572 21.2985C116.572 21.1 116.572 20.8988 116.572 20.7003C116.572 20.5018 116.572 20.3019 116.572 20.1034C116.572 19.9049 116.572 19.7064 116.572 19.5079C116.572 19.3094 116.572 19.1109 116.572 18.9124C116.572 18.7139 116.572 18.5154 116.572 18.3169C116.572 18.1184 116.572 17.9185 116.572 17.72C116.572 17.5215 116.572 17.3217 116.572 17.1218C116.572 16.922 116.572 16.7221 116.572 16.5223C116.572 16.3224 116.572 16.1212 116.572 15.9201C116.572 15.7189 116.572 15.5177 116.572 15.3152C116.572 15.1126 116.572 14.9101 116.572 14.7062C116.572 14.5024 116.572 14.2985 116.572 14.0933C116.572 13.8881 116.572 13.6829 116.572 13.4763C116.572 13.2697 116.572 13.0619 116.572 12.854C116.572 12.6461 116.572 12.4368 116.572 12.2263C116.572 12.0157 116.572 11.8051 116.572 11.5932C116.572 11.3813 116.572 11.168 116.572 10.9534C116.572 10.7388 116.572 10.5229 116.572 10.3056C116.572 10.0883 116.572 9.86968 116.572 9.65106C116.572 9.43109 116.572 9.20979 116.572 8.98848C116.572 8.76584 116.572 8.54185 116.572 8.31652C116.572 8.09119 116.572 7.86452 116.571 7.63516C116.571 7.40715 116.571 7.17646 116.569 6.94442C116.569 6.71238 116.569 6.47901 116.568 6.24295C116.568 6.00689 116.568 5.77083 116.567 5.53074C116.567 5.292 116.567 5.05058 116.565 4.80781C116.564 4.56504 116.565 4.3196 116.564 4.07281C116.564 3.82602 116.564 3.57654 116.563 3.32573C116.563 3.07492 116.563 2.82142 116.561 2.56524C116.561 2.30906 116.561 2.05154 116.56 1.79134C116.559 1.53114 116.56 1.26825 116.559 1.00403H116.564Z" fill="#E40A18"/>
<path d="M148.064 1.0039C147.977 1.26276 147.893 1.51626 147.808 1.76573C147.724 2.0152 147.642 2.26065 147.56 2.50342C147.478 2.74484 147.399 2.98225 147.32 3.21696C147.241 3.45168 147.163 3.68104 147.087 3.90905C147.01 4.13572 146.935 4.35971 146.86 4.58101C146.785 4.80232 146.711 5.0196 146.639 5.2342C146.566 5.4488 146.494 5.66206 146.423 5.8713C146.352 6.08053 146.282 6.28842 146.212 6.49363C146.142 6.69885 146.074 6.90272 146.006 7.1039C145.937 7.30509 145.869 7.50494 145.802 7.7021C145.735 7.9006 145.668 8.09643 145.6 8.29225C145.533 8.48807 145.468 8.68121 145.402 8.87435C145.336 9.06749 145.271 9.25929 145.205 9.45109C145.139 9.64289 145.075 9.83334 145.009 10.0225C144.945 10.2129 144.879 10.402 144.815 10.5925C144.75 10.7816 144.684 10.9721 144.62 11.1612C144.556 11.3503 144.49 11.5408 144.424 11.7312C144.358 11.9217 144.294 12.1121 144.228 12.3039C144.163 12.4957 144.097 12.6875 144.03 12.8807C143.964 13.0738 143.897 13.2683 143.83 13.4628C143.763 13.6586 143.695 13.8544 143.626 14.0529C143.558 14.2514 143.489 14.4513 143.42 14.6525C143.35 14.8536 143.28 15.0575 143.209 15.2627C143.138 15.4679 143.067 15.6758 142.993 15.8851C142.919 16.0943 142.847 16.3076 142.773 16.5222C142.699 16.7368 142.623 16.954 142.546 17.174C142.47 17.394 142.392 17.618 142.314 17.8433C142.235 18.07 142.156 18.2993 142.076 18.5313C141.995 18.7647 141.912 19.0008 141.829 19.2395C141.746 19.4796 141.66 19.7224 141.574 19.9705C141.656 20.2119 141.736 20.4493 141.815 20.6854C141.895 20.9214 141.974 21.1521 142.05 21.3815C142.128 21.6109 142.204 21.8362 142.28 22.0588C142.355 22.2815 142.428 22.5028 142.502 22.7201C142.576 22.9373 142.648 23.1533 142.719 23.3652C142.791 23.5785 142.862 23.789 142.931 23.9969C143.001 24.2048 143.071 24.4114 143.139 24.6152C143.208 24.8191 143.275 25.0216 143.343 25.2215C143.41 25.4213 143.477 25.6212 143.543 25.817C143.609 26.0128 143.674 26.21 143.739 26.4045C143.803 26.599 143.868 26.7921 143.932 26.9826C143.996 27.1744 144.059 27.3648 144.122 27.5539C144.185 27.743 144.249 27.9322 144.31 28.1199C144.373 28.3077 144.435 28.4955 144.497 28.6819C144.558 28.8683 144.62 29.0548 144.682 29.2412C144.743 29.4277 144.805 29.6127 144.865 29.7978C144.927 29.9829 144.988 30.1694 145.049 30.3545C145.111 30.5395 145.171 30.726 145.233 30.9111C145.295 31.0962 145.355 31.2839 145.417 31.4704C145.478 31.6568 145.54 31.8446 145.602 32.0324C145.664 32.2201 145.725 32.4092 145.788 32.5997C145.851 32.7902 145.913 32.9806 145.976 33.1724C146.039 33.3642 146.102 33.5574 146.166 33.7532C146.231 33.9477 146.294 34.1448 146.36 34.342C146.424 34.5405 146.49 34.739 146.555 34.9402C146.621 35.1414 146.687 35.3452 146.754 35.5505C146.821 35.7557 146.888 35.9636 146.956 36.1728C147.025 36.382 147.093 36.5953 147.163 36.8099C147.233 37.0245 147.303 37.2418 147.375 37.4617C147.446 37.6817 147.518 37.9043 147.591 38.1297C147.663 38.355 147.738 38.5844 147.812 38.8164C147.887 39.0484 147.962 39.2831 148.04 39.5232C148.117 39.762 148.196 40.0047 148.275 40.2502C148.354 40.4956 148.435 40.7464 148.516 40.9999C148.255 40.9624 148.007 40.9275 147.769 40.8926C147.532 40.8591 147.304 40.8269 147.085 40.7961C146.867 40.7652 146.655 40.7357 146.448 40.7062C146.242 40.678 146.04 40.6499 145.842 40.6217C145.643 40.5935 145.448 40.5667 145.252 40.5399C145.056 40.5131 144.86 40.4862 144.662 40.4594C144.463 40.4326 144.262 40.4058 144.055 40.3776C143.849 40.3494 143.637 40.3213 143.418 40.2918C143.198 40.2623 142.972 40.2327 142.733 40.2006C142.495 40.1697 142.246 40.1362 141.986 40.1026C141.904 39.8451 141.825 39.5916 141.747 39.3435C141.669 39.0954 141.591 38.8526 141.516 38.6139C141.441 38.3751 141.367 38.1417 141.294 37.9124C141.221 37.683 141.149 37.4564 141.079 37.2351C141.008 37.0124 140.94 36.7951 140.871 36.5792C140.803 36.3646 140.736 36.1527 140.669 35.9434C140.602 35.7342 140.536 35.5277 140.472 35.3238C140.407 35.1199 140.343 34.9187 140.278 34.7189C140.214 34.519 140.151 34.3219 140.089 34.126C140.026 33.9302 139.965 33.7357 139.903 33.5426C139.841 33.3495 139.779 33.1563 139.718 32.9659C139.656 32.7741 139.596 32.5836 139.534 32.3932C139.472 32.2027 139.412 32.0122 139.35 31.8218C139.289 31.6313 139.228 31.4409 139.167 31.2504C139.105 31.0599 139.043 30.8682 138.981 30.6764C138.92 30.4846 138.857 30.2914 138.795 30.0969C138.732 29.9025 138.669 29.7066 138.606 29.5095C138.541 29.3123 138.477 29.1125 138.413 28.9113C138.348 28.7101 138.281 28.5062 138.216 28.301C138.15 28.0958 138.081 27.8866 138.013 27.676C137.945 27.4654 137.875 27.2508 137.805 27.0335C137.735 26.8162 137.663 26.5963 137.591 26.3723C137.518 26.1483 137.443 25.9203 137.368 25.6882C137.293 25.4562 137.215 25.2202 137.137 24.9801C137.059 24.74 136.979 24.4945 136.897 24.2451C136.811 24.4919 136.728 24.7346 136.646 24.972C136.564 25.2094 136.484 25.4415 136.405 25.6695C136.326 25.8975 136.249 26.1201 136.173 26.3401C136.096 26.5601 136.023 26.7747 135.949 26.9866C135.875 27.1985 135.803 27.4064 135.732 27.6116C135.66 27.8168 135.591 28.0193 135.521 28.2178C135.451 28.4177 135.383 28.6135 135.316 28.808C135.249 29.0025 135.182 29.1943 135.115 29.3847C135.048 29.5752 134.983 29.7643 134.917 29.9507C134.852 30.1385 134.787 30.3236 134.723 30.5087C134.659 30.6938 134.594 30.8775 134.53 31.0613C134.465 31.245 134.402 31.4275 134.338 31.6099C134.274 31.7923 134.211 31.9747 134.146 32.1584C134.082 32.3422 134.017 32.5246 133.953 32.7083C133.889 32.8921 133.824 33.0772 133.759 33.2636C133.693 33.4501 133.627 33.6365 133.561 33.8256C133.496 34.0147 133.429 34.2052 133.36 34.397C133.293 34.5888 133.225 34.7833 133.155 34.9804C133.085 35.1776 133.016 35.3761 132.944 35.5786C132.873 35.7811 132.801 35.985 132.727 36.1929C132.653 36.4008 132.58 36.6127 132.503 36.8273C132.427 37.0419 132.35 37.2605 132.271 37.4832C132.192 37.7058 132.113 37.9325 132.031 38.1632C131.949 38.3939 131.866 38.63 131.78 38.87C131.521 38.8419 131.277 38.815 131.045 38.7896C130.812 38.7641 130.591 38.7399 130.377 38.7171C130.164 38.6943 129.957 38.6715 129.756 38.6501C129.555 38.6286 129.359 38.6072 129.165 38.587C128.97 38.5669 128.777 38.5468 128.583 38.5253C128.388 38.5052 128.191 38.4851 127.991 38.4636C127.79 38.4435 127.585 38.4221 127.37 38.3993C127.156 38.3765 126.934 38.355 126.701 38.3309C126.468 38.3067 126.223 38.2826 125.965 38.2571C126.057 38.0103 126.147 37.7689 126.237 37.5301C126.327 37.2914 126.414 37.0567 126.5 36.8246C126.586 36.5926 126.671 36.3646 126.755 36.1406C126.838 35.9166 126.921 35.694 127.003 35.4753C127.085 35.2567 127.165 35.0408 127.244 34.8275C127.323 34.6143 127.402 34.4037 127.479 34.1944C127.555 33.9852 127.633 33.78 127.708 33.5761C127.783 33.3723 127.858 33.1697 127.934 32.9699C128.007 32.77 128.081 32.5715 128.154 32.3744C128.226 32.1772 128.298 31.9827 128.371 31.7882C128.442 31.5938 128.514 31.402 128.584 31.2102C128.654 31.0184 128.725 30.8279 128.796 30.6388C128.866 30.4483 128.935 30.2592 129.005 30.0715C129.075 29.8823 129.145 29.6946 129.213 29.5068C129.283 29.319 129.351 29.1312 129.421 28.9435C129.491 28.7557 129.559 28.5679 129.629 28.3788C129.699 28.191 129.767 28.0019 129.837 27.8114C129.907 27.6223 129.976 27.4319 130.046 27.2401C130.116 27.0496 130.187 26.8565 130.258 26.6633C130.329 26.4702 130.4 26.2757 130.471 26.0799C130.542 25.8841 130.615 25.6869 130.688 25.4871C130.761 25.2872 130.835 25.086 130.908 24.8835C130.982 24.6796 131.057 24.4744 131.134 24.2679C131.21 24.0613 131.287 23.8507 131.363 23.6375C131.441 23.4242 131.519 23.2096 131.598 22.991C131.677 22.7724 131.757 22.5511 131.839 22.3271C131.921 22.1031 132.004 21.8751 132.087 21.643C132.171 21.411 132.256 21.1763 132.344 20.9375C132.431 20.6988 132.518 20.456 132.608 20.2092C132.698 19.9625 132.788 19.7116 132.88 19.4555C132.793 19.2047 132.707 18.9579 132.624 18.7164C132.539 18.4737 132.456 18.2363 132.376 18.0016C132.294 17.7668 132.213 17.5361 132.134 17.3095C132.055 17.0828 131.977 16.8588 131.9 16.6375C131.823 16.4175 131.747 16.2003 131.672 15.9857C131.597 15.7711 131.523 15.5591 131.449 15.3512C131.375 15.142 131.304 14.9368 131.232 14.7316C131.161 14.5277 131.09 14.3265 131.02 14.1267C130.95 13.9268 130.88 13.7297 130.812 13.5339C130.743 13.338 130.675 13.1449 130.607 12.9517C130.54 12.7599 130.471 12.5682 130.405 12.379C130.338 12.1899 130.273 12.0008 130.206 11.813C130.14 11.6253 130.074 11.4388 130.008 11.2524C129.943 11.066 129.877 10.8809 129.811 10.6958C129.746 10.5107 129.681 10.3256 129.615 10.1418C129.55 9.95808 129.485 9.77299 129.42 9.5879C129.354 9.4028 129.288 9.21905 129.222 9.03396C129.157 8.84887 129.091 8.66378 129.025 8.47734C128.96 8.29091 128.893 8.10448 128.825 7.91536C128.758 7.72758 128.691 7.53847 128.623 7.34801C128.555 7.15755 128.487 6.96575 128.418 6.77261C128.349 6.57947 128.28 6.38499 128.21 6.18917C128.14 5.99335 128.069 5.79484 127.998 5.595C127.927 5.39515 127.854 5.19262 127.781 4.98875C127.707 4.78488 127.633 4.57699 127.558 4.36776C127.483 4.15852 127.406 3.9466 127.33 3.732C127.254 3.5174 127.174 3.30012 127.095 3.07882C127.016 2.85751 126.936 2.63486 126.854 2.40685C126.772 2.18018 126.689 1.94948 126.604 1.71477C126.52 1.48005 126.434 1.24265 126.347 1.00122H132.794C132.876 1.24533 132.957 1.48273 133.036 1.71745C133.115 1.95082 133.191 2.18018 133.266 2.40551C133.341 2.63084 133.415 2.8508 133.489 3.06809C133.561 3.28537 133.633 3.49728 133.704 3.70786C133.773 3.9171 133.843 4.12365 133.911 4.32752C133.98 4.53139 134.047 4.73123 134.113 4.92974C134.178 5.12824 134.244 5.32407 134.309 5.51721C134.373 5.71035 134.437 5.90214 134.5 6.0926C134.563 6.28306 134.626 6.47083 134.689 6.65861C134.752 6.84638 134.814 7.03282 134.876 7.21925C134.938 7.40568 134.999 7.59078 135.061 7.77587C135.123 7.96096 135.184 8.14605 135.245 8.33115C135.306 8.51624 135.368 8.70267 135.43 8.88911C135.491 9.07554 135.553 9.26331 135.616 9.45243C135.679 9.64155 135.741 9.83066 135.805 10.0225C135.868 10.2143 135.933 10.4074 135.997 10.6032C136.062 10.799 136.127 10.9975 136.193 11.1974C136.259 11.3986 136.326 11.6011 136.394 11.8077C136.463 12.0142 136.531 12.2235 136.601 12.4381C136.67 12.6527 136.742 12.8686 136.815 13.0899C136.888 13.3112 136.961 13.5365 137.037 13.7672C137.112 13.9979 137.188 14.2326 137.267 14.4714C137.345 14.7115 137.426 14.9569 137.507 15.2064C137.591 14.9636 137.672 14.7249 137.751 14.4915C137.831 14.2581 137.91 14.0288 137.986 13.8048C138.063 13.5808 138.138 13.3595 138.212 13.1435C138.285 12.9263 138.358 12.7143 138.429 12.5051C138.5 12.2959 138.57 12.0893 138.639 11.8855C138.709 11.6816 138.776 11.4817 138.843 11.2832C138.91 11.0847 138.977 10.8902 139.043 10.6958C139.109 10.5013 139.173 10.3108 139.238 10.1204C139.302 9.92992 139.366 9.74214 139.429 9.55437C139.492 9.36659 139.555 9.18016 139.619 8.99372C139.682 8.80729 139.745 8.6222 139.806 8.4371C139.868 8.25201 139.931 8.06692 139.994 7.88183C140.057 7.69674 140.119 7.5103 140.182 7.32387C140.245 7.13743 140.308 6.94966 140.371 6.76054C140.434 6.57143 140.498 6.38231 140.563 6.19051C140.627 5.99871 140.693 5.80557 140.757 5.60975C140.823 5.41393 140.89 5.21542 140.957 5.01558C141.024 4.81439 141.093 4.61186 141.162 4.40531C141.232 4.19876 141.302 3.98818 141.373 3.77492C141.444 3.56166 141.516 3.34438 141.59 3.12308C141.664 2.90177 141.739 2.67644 141.817 2.44575C141.893 2.21505 141.972 1.98033 142.052 1.74025C142.132 1.50017 142.212 1.25472 142.297 1.0039H143.689C143.901 1.0039 144.105 1.0039 144.305 1.0039H148.066H148.064Z" fill="#E40A18"/>
</svg>
